<?xml version="1.0" encoding="UTF-8"?>
<svg version="1.1" xmlns="http://www.w3.org/2000/svg" width="512" height="512">
<path d="M0 0 C1.1758667 -0.00929787 1.1758667 -0.00929787 2.37548828 -0.01878357 C4.02960978 -0.02587401 5.68380277 -0.02272114 7.33789062 -0.01000977 C9.86722149 0.00386358 12.39285622 -0.03022728 14.921875 -0.06835938 C16.5312509 -0.06931057 18.14063143 -0.06745174 19.75 -0.0625 C20.5042627 -0.07575821 21.25852539 -0.08901642 22.03564453 -0.10267639 C25.85612279 -0.03500124 27.53559982 0.24878381 30.3671875 2.89868164 C32.14052798 6.03619644 32.20515838 8.01720371 31.875 11.56640625 C33.06234741 11.91844116 33.06234741 11.91844116 34.27368164 12.27758789 C38.86133561 13.91939016 43.13354316 16.02697285 47.49609375 18.1875 C48.42426407 18.6432692 49.35243439 19.09903839 50.30873108 19.56861877 C52.28800012 20.54094688 54.26644829 21.51494744 56.24414062 22.49047852 C61.37653477 25.02196414 66.51489129 27.54130041 71.65234375 30.0625 C72.65014862 30.55261566 73.64795349 31.04273132 74.67599487 31.54769897 C81.55743251 34.92625716 88.45166494 38.2743868 95.375 41.56640625 C103.09179296 45.23648978 110.79440874 48.93473068 118.48760986 52.65396118 C134.13235938 60.22854329 134.13235938 60.22854329 149.82055664 67.71240234 C154.24203425 69.80495022 158.62460032 71.93908378 162.95703125 74.2109375 C170.5752326 78.13924997 176.88452536 81.13502989 185.5625 81.25390625 C192.87465959 81.35536337 195.7494869 82.54549546 200.875 87.56640625 C202.52052018 89.00109916 204.18582053 90.41091752 205.85180664 91.82177734 C207.69449633 93.38484089 209.52393683 94.96233273 211.3515625 96.54296875 C217.11554527 101.50890956 223.03607204 106.28377897 228.96484375 111.05078125 C230.46724609 112.26507813 230.46724609 112.26507813 232 113.50390625 C232.91007812 114.23480469 233.82015625 114.96570313 234.7578125 115.71875 C237.83319959 118.40262102 237.84882057 119.2417813 238.1875 123.44140625 C238.34393094 126.27873987 238.04680317 127.32472133 236.37866211 129.67138672 C232.8539724 132.33922109 229.62862074 132.06796788 225.390625 131.95703125 C224.57503113 131.95137146 223.75943726 131.94571167 222.91912842 131.93988037 C220.32048228 131.91753352 217.72322758 131.86734247 215.125 131.81640625 C213.36069703 131.79633896 211.5963724 131.77808859 209.83203125 131.76171875 C205.51205679 131.72107929 201.19508104 131.64279275 196.875 131.56640625 C196.875 142.78640625 196.875 154.00640625 196.875 165.56640625 C202.155 165.56640625 207.435 165.56640625 212.875 165.56640625 C217.875 168.56640625 217.875 168.56640625 218.875 170.56640625 C218.98552822 172.20942062 219.03413538 173.85678702 219.05200195 175.50341797 C219.06483719 176.53143524 219.07767242 177.55945251 219.09089661 178.61862183 C219.10197701 180.29047043 219.10197701 180.29047043 219.11328125 181.99609375 C219.121353 183.1379715 219.12942474 184.27984924 219.13774109 185.45632935 C219.15158877 187.8756559 219.16230785 190.29500205 219.17016602 192.71435547 C219.18739728 196.41931997 219.23128085 200.12339663 219.27539062 203.828125 C219.28551559 206.17577467 219.2940323 208.52343194 219.30078125 210.87109375 C219.31828934 211.98161102 219.33579742 213.0921283 219.35383606 214.23629761 C219.34944771 215.78778 219.34944771 215.78778 219.3449707 217.37060547 C219.35377007 218.73389481 219.35377007 218.73389481 219.36274719 220.12472534 C218.7219696 223.33248222 217.35629818 224.50883248 214.875 226.56640625 C212.46494816 227.77143217 210.92137219 227.70593771 208.22924805 227.72753906 C207.26452072 227.73714661 206.2997934 227.74675415 205.30583191 227.75665283 C204.26002457 227.76090271 203.21421722 227.76515259 202.13671875 227.76953125 C201.06380081 227.77523132 199.99088287 227.7809314 198.88545227 227.7868042 C196.61155181 227.79626308 194.33763758 227.80279169 192.0637207 227.80664062 C188.58715825 227.81633747 185.11118902 227.84734947 181.63476562 227.87890625 C179.42708685 227.88543704 177.21940384 227.89068722 175.01171875 227.89453125 C173.9719841 227.90687805 172.93224945 227.91922485 171.86100769 227.9319458 C162.75740218 227.90390097 162.75740218 227.90390097 158.875 224.56640625 C157.63465484 222.08571593 157.73475254 220.40452745 157.71386719 217.62939453 C157.70425964 216.60137726 157.6946521 215.57335999 157.68475342 214.51419067 C157.6783786 212.84234207 157.6783786 212.84234207 157.671875 211.13671875 C157.66617493 209.994841 157.66047485 208.85296326 157.65460205 207.67648315 C157.64514306 205.25715057 157.63861451 202.83780505 157.63476562 200.41845703 C157.62505825 196.71363904 157.59404184 193.00937523 157.5625 189.3046875 C157.55597034 186.95703455 157.55071972 184.60937763 157.546875 182.26171875 C157.5345282 181.15120148 157.5221814 180.0406842 157.50946045 178.89651489 C157.51246155 177.8621933 157.51546265 176.8278717 157.51855469 175.76220703 C157.51490906 174.85334747 157.51126343 173.94448792 157.50750732 173.00808716 C157.95170503 170.05676563 158.8222692 168.70855796 160.875 166.56640625 C166.89164358 164.56085839 173.5329008 165.56640625 179.875 165.56640625 C179.875 154.34640625 179.875 143.12640625 179.875 131.56640625 C131.035 131.56640625 82.195 131.56640625 31.875 131.56640625 C31.875 234.19640625 31.875 336.82640625 31.875 442.56640625 C41.775 442.56640625 51.675 442.56640625 61.875 442.56640625 C67.50113704 448.19254329 67.50113704 448.19254329 67.50610352 452.09375 C67.51863663 452.95814697 67.53116974 453.82254395 67.54408264 454.71313477 C67.53082443 455.63408936 67.51756622 456.55504395 67.50390625 457.50390625 C67.50631821 458.46159912 67.50873016 459.41929199 67.51121521 460.40600586 C67.51023766 462.42663726 67.49686601 464.44729574 67.47192383 466.46777344 C67.43761265 469.55626634 67.45127041 472.64189741 67.47070312 475.73046875 C67.46380443 477.69662673 67.45413184 479.66277735 67.44140625 481.62890625 C67.44636612 482.54986084 67.45132599 483.47081543 67.45643616 484.41967773 C67.44059982 485.28407471 67.42476349 486.14847168 67.40844727 487.0390625 C67.3991494 488.17226929 67.3991494 488.17226929 67.3896637 489.32836914 C66.56671003 492.90701839 65.76670029 494.19721303 62.875 496.56640625 C58.68505504 497.33494806 54.52448442 497.23813278 50.27539062 497.19750977 C48.98400681 497.20466507 47.69262299 497.21182037 46.36210632 497.2191925 C42.82266983 497.2377109 39.28398639 497.22476616 35.74458122 497.20510221 C32.04020179 497.1887175 28.33587013 497.19752833 24.63146973 497.20262146 C18.41060353 497.20714265 12.19003799 497.19127131 5.96923828 497.16333008 C-1.22228486 497.13127777 -8.41326575 497.13129364 -15.6048274 497.14854485 C-22.52363349 497.16441024 -29.44224082 497.15767639 -36.36103821 497.14060783 C-39.30517367 497.13373627 -42.24914986 497.13477076 -45.19328308 497.14215279 C-49.3042919 497.15123849 -53.41446341 497.12727989 -57.52539062 497.09985352 C-58.74837357 497.10637939 -59.97135651 497.11290527 -61.23139954 497.11962891 C-62.35020004 497.10690445 -63.46900055 497.09417999 -64.6217041 497.08106995 C-65.59360939 497.07826303 -66.56551468 497.0754561 -67.56687164 497.07256413 C-70.85701172 496.42156852 -72.05398555 495.14916063 -74.125 492.56640625 C-74.6396637 490.3659668 -74.6396637 490.3659668 -74.65844727 487.953125 C-74.68220177 486.59151245 -74.68220177 486.59151245 -74.70643616 485.20239258 C-74.70147629 484.22939209 -74.69651642 483.2563916 -74.69140625 482.25390625 C-74.70070412 480.74509888 -74.70070412 480.74509888 -74.71018982 479.20581055 C-74.7172881 477.08090177 -74.71411388 474.95593738 -74.70141602 472.83105469 C-74.6875483 469.57773685 -74.72162443 466.3272937 -74.75976562 463.07421875 C-74.7607168 461.00911388 -74.7588581 458.9440054 -74.75390625 456.87890625 C-74.76716446 455.90590576 -74.78042267 454.93290527 -74.79408264 453.93041992 C-74.77528297 452.56880737 -74.77528297 452.56880737 -74.75610352 451.1796875 C-74.75514175 450.38344971 -74.75417999 449.58721191 -74.75318909 448.7668457 C-74.125 446.56640625 -74.125 446.56640625 -69.125 442.56640625 C-59.225 442.56640625 -49.325 442.56640625 -39.125 442.56640625 C-39.125 339.93640625 -39.125 237.30640625 -39.125 131.56640625 C-45.395 131.56640625 -51.665 131.56640625 -58.125 131.56640625 C-58.125 133.87640625 -58.125 136.18640625 -58.125 138.56640625 C-59.74414062 141.46459961 -59.74414062 141.46459961 -63.125 143.56640625 C-67.81434424 144.29987985 -72.48525971 144.24610822 -77.21875 144.1953125 C-78.61210312 144.1961418 -80.00545614 144.19860348 -81.39880371 144.20262146 C-84.31418424 144.20547517 -87.22879468 144.19082207 -90.14404297 144.16333008 C-93.87342011 144.12924629 -97.6014209 144.13526858 -101.33086395 144.15399265 C-104.20663848 144.16458193 -107.08209498 144.1556077 -109.95783997 144.14060783 C-111.33249465 144.13543959 -112.70718274 144.13589133 -114.08183289 144.14215279 C-116.00577101 144.14762715 -117.92972539 144.12432813 -119.85351562 144.09985352 C-120.94651978 144.09365494 -122.03952393 144.08745636 -123.16564941 144.08106995 C-126.92650226 143.42701617 -128.56258411 142.38848461 -131.125 139.56640625 C-131.74645996 136.64465332 -131.74645996 136.64465332 -131.74023438 133.20898438 C-131.74953979 131.92084839 -131.75884521 130.6327124 -131.76843262 129.30554199 C-131.75284579 127.90290225 -131.73626074 126.50027329 -131.71875 125.09765625 C-131.71703838 123.65564066 -131.7171051 122.21362196 -131.71887207 120.77160645 C-131.71721969 117.75189374 -131.69853868 114.7329242 -131.66699219 111.71337891 C-131.62731378 107.84615854 -131.62294717 103.97991123 -131.63045502 100.11252594 C-131.63352719 97.13559075 -131.6213956 94.15887362 -131.60432434 91.18199158 C-131.59730191 89.75627511 -131.59416889 88.33053393 -131.59501648 86.90480042 C-131.59321536 84.91107387 -131.56954777 82.91740339 -131.54492188 80.92382812 C-131.53650269 79.79005737 -131.5280835 78.65628662 -131.51940918 77.48815918 C-131.08123165 74.2421737 -130.42155556 72.8683619 -128.125 70.56640625 C-125.36430372 69.64617416 -123.81532279 69.45469509 -120.97998047 69.48803711 C-119.73255569 69.49685158 -119.73255569 69.49685158 -118.45993042 69.50584412 C-117.11464767 69.51842003 -117.11464767 69.51842003 -115.7421875 69.53125 C-113.83332796 69.52753498 -111.92447168 69.52160398 -110.015625 69.51367188 C-107.01314097 69.50314457 -104.01302592 69.50373922 -101.01074219 69.54223633 C-87.94816596 70.239956 -87.94816596 70.239956 -76.66796875 64.83203125 C-75.45794252 63.43478344 -74.27349028 62.01465864 -73.125 60.56640625 C-72.02899515 59.61998449 -70.90390769 58.7056545 -69.74609375 57.8359375 C-69.22611816 57.43262207 -68.70614258 57.02930664 -68.17041016 56.61376953 C-67.6397998 56.20626465 -67.10918945 55.79875977 -66.5625 55.37890625 C-61.40999391 51.37422868 -56.30948762 47.31301352 -51.25 43.19140625 C-50.58572998 42.6507251 -49.92145996 42.11004395 -49.23706055 41.55297852 C-45.81262425 38.76317085 -42.39325877 35.9672479 -38.9765625 33.16796875 C-38.29601807 32.61197998 -37.61547363 32.05599121 -36.91430664 31.4831543 C-35.56505349 30.38039466 -34.21784858 29.27512375 -32.87280273 28.16723633 C-29.84052794 25.68793017 -26.80339995 23.29767052 -23.55859375 21.1015625 C-16.64368936 16.4954094 -16.64368936 16.4954094 -13.125 9.25390625 C-12.939375 8.05314453 -12.939375 8.05314453 -12.75 6.828125 C-10.93517567 0.26072944 -5.97498345 -0.03929021 0 0 Z M2.875 16.56640625 C-1.21739996 30.26646042 -5.12274868 44.01362601 -8.87921143 57.80923462 C-9.33431128 59.47911975 -9.79113633 61.14853568 -10.24969482 62.81747437 C-10.89954948 65.1855254 -11.54253662 67.55533558 -12.18359375 69.92578125 C-12.38014053 70.63839615 -12.57668732 71.35101105 -12.77919006 72.08522034 C-13.67008857 75.41036866 -14.125 78.08992582 -14.125 81.56640625 C-4.555 81.56640625 5.015 81.56640625 14.875 81.56640625 C14.875 60.11640625 14.875 38.66640625 14.875 16.56640625 C10.915 16.56640625 6.955 16.56640625 2.875 16.56640625 Z M31.875 30.56640625 C31.875 47.39640625 31.875 64.22640625 31.875 81.56640625 C66.525 81.56640625 101.175 81.56640625 136.875 81.56640625 C134.15649101 79.5275245 132.14866237 78.08173115 129.20581055 76.65625 C128.14509087 76.13862846 128.14509087 76.13862846 127.0629425 75.61054993 C126.30353867 75.24535751 125.54413483 74.8801651 124.76171875 74.50390625 C123.96416672 74.11627609 123.16661469 73.72864594 122.34489441 73.32926941 C119.75276653 72.07080019 117.15771008 70.81850532 114.5625 69.56640625 C112.76889324 68.69733044 110.97543678 67.82794435 109.18212891 66.95825195 C99.1834843 62.11324024 89.17570692 57.28667937 79.14257812 52.51342773 C73.88157927 50.01035228 68.63368434 47.48197728 63.39453125 44.93359375 C62.08286844 44.29658269 60.77118222 43.65961986 59.45947266 43.02270508 C57.53958758 42.09043226 55.62024747 41.15713559 53.70281982 40.21981812 C51.93230278 39.35437325 50.15953475 38.49353825 48.38671875 37.6328125 C46.86244263 36.88946655 46.86244263 36.88946655 45.30737305 36.13110352 C40.89750264 34.12079983 36.37483505 32.36634027 31.875 30.56640625 Z M-23.125 42.56640625 C-23.90101562 43.23285156 -24.67703125 43.89929687 -25.4765625 44.5859375 C-31.35539087 49.61073445 -37.28913653 54.54376856 -43.375 59.31640625 C-43.95725342 59.77885742 -44.53950684 60.24130859 -45.1394043 60.71777344 C-47.72182114 62.75561888 -50.28016073 64.66714648 -53.04296875 66.4609375 C-55.88808732 68.23467973 -55.88808732 68.23467973 -59.125 71.56640625 C-58.795 74.86640625 -58.465 78.16640625 -58.125 81.56640625 C-49.545 81.56640625 -40.965 81.56640625 -32.125 81.56640625 C-30.67460921 76.49641103 -29.22950964 71.42550551 -27.79760742 66.3503418 C-27.30881 64.62388528 -26.81696247 62.89828931 -26.32202148 61.17358398 C-25.61160764 58.69604242 -24.91217806 56.21562506 -24.21484375 53.734375 C-23.99094467 52.9624028 -23.76704559 52.1904306 -23.53636169 51.39506531 C-22.26825944 46.99185584 -22.26825944 46.99185584 -23.125 42.56640625 Z M-115.125 86.56640625 C-115.125 99.76640625 -115.125 112.96640625 -115.125 126.56640625 C-101.925 126.56640625 -88.725 126.56640625 -75.125 126.56640625 C-75.125 113.36640625 -75.125 100.16640625 -75.125 86.56640625 C-88.325 86.56640625 -101.525 86.56640625 -115.125 86.56640625 Z M-50.125 98.56640625 C-47.815 102.19640625 -45.505 105.82640625 -43.125 109.56640625 C-39.48712678 107.74746964 -37.65280768 106.3382989 -34.875 103.50390625 C-34.16859375 102.79105469 -33.4621875 102.07820313 -32.734375 101.34375 C-31.01313135 99.84248121 -31.01313135 99.84248121 -31.125 98.56640625 C-37.395 98.56640625 -43.665 98.56640625 -50.125 98.56640625 Z M10.875 98.56640625 C14.49887 102.79425458 17.91726706 106.72507722 21.875 110.56640625 C25.53064739 109.03204049 27.86198623 106.81658203 30.625 104.00390625 C31.42421875 103.19824219 32.2234375 102.39257812 33.046875 101.5625 C34.9875663 99.89462034 34.9875663 99.89462034 34.875 98.56640625 C26.955 98.56640625 19.035 98.56640625 10.875 98.56640625 Z M77.875 98.56640625 C81.49887 102.79425458 84.91726706 106.72507722 88.875 110.56640625 C92.53064739 109.03204049 94.86198623 106.81658203 97.625 104.00390625 C98.42421875 103.19824219 99.2234375 102.39257812 100.046875 101.5625 C101.9875663 99.89462034 101.9875663 99.89462034 101.875 98.56640625 C93.955 98.56640625 86.035 98.56640625 77.875 98.56640625 Z M144.875 98.56640625 C148.49887 102.79425458 151.91726706 106.72507722 155.875 110.56640625 C159.53064739 109.03204049 161.86198623 106.81658203 164.625 104.00390625 C165.42421875 103.19824219 166.2234375 102.39257812 167.046875 101.5625 C168.9875663 99.89462034 168.9875663 99.89462034 168.875 98.56640625 C160.955 98.56640625 153.035 98.56640625 144.875 98.56640625 Z M185.52148438 105.78320312 C184.95751953 106.35103516 184.39355469 106.91886719 183.8125 107.50390625 C183.24466797 108.06787109 182.67683594 108.63183594 182.09179688 109.21289062 C179.21337996 111.5139151 179.21337996 111.5139151 177.875 114.56640625 C186.785 114.56640625 195.695 114.56640625 204.875 114.56640625 C201.66486213 111.35626838 198.50409341 108.26447437 195.125 105.25390625 C194.34640625 104.55652344 193.5678125 103.85914062 192.765625 103.140625 C189.21845576 100.18709359 188.415972 102.89564841 185.52148438 105.78320312 Z M-13.7265625 104.9375 C-14.73956042 105.95449659 -15.74716283 106.97688899 -16.75 108.00390625 C-17.265625 108.52017578 -17.78125 109.03644531 -18.3125 109.56835938 C-20.94252592 111.71018477 -20.94252592 111.71018477 -22.125 114.56640625 C-14.205 114.56640625 -6.285 114.56640625 1.875 114.56640625 C-3.39916913 108.32289812 -3.39916913 108.32289812 -9.125 102.56640625 C-11.4653003 102.34186916 -11.4653003 102.34186916 -13.7265625 104.9375 Z M55.875 102.56640625 C54.03864422 104.37593216 52.20583792 106.18881263 50.375 108.00390625 C49.85035156 108.52017578 49.32570312 109.03644531 48.78515625 109.56835938 C47.46275448 110.88217412 46.16664432 112.2223413 44.875 113.56640625 C44.875 113.89640625 44.875 114.22640625 44.875 114.56640625 C52.465 114.56640625 60.055 114.56640625 67.875 114.56640625 C63.82000008 109.835573 60.62603691 106.29936382 55.875 102.56640625 Z M122.875 102.56640625 C121.03864422 104.37593216 119.20583792 106.18881263 117.375 108.00390625 C116.85035156 108.52017578 116.32570312 109.03644531 115.78515625 109.56835938 C114.46275448 110.88217412 113.16664432 112.2223413 111.875 113.56640625 C111.875 113.89640625 111.875 114.22640625 111.875 114.56640625 C119.465 114.56640625 127.055 114.56640625 134.875 114.56640625 C130.82000008 109.835573 127.62603691 106.29936382 122.875 102.56640625 Z M-10.125 131.56640625 C-5.01220908 137.53189759 -5.01220908 137.53189759 0.36328125 143.1875 C1.15154297 143.97705078 1.93980469 144.76660156 2.75195312 145.58007812 C3.55568359 146.37994141 4.35941406 147.17980469 5.1875 148.00390625 C6.01056641 148.83083984 6.83363281 149.65777344 7.68164062 150.50976562 C8.46345703 151.29029297 9.24527344 152.07082031 10.05078125 152.875 C10.76145752 153.58454834 11.47213379 154.29409668 12.2043457 155.02514648 C13.61866475 156.67941798 13.61866475 156.67941798 14.875 156.56640625 C14.875 148.31640625 14.875 140.06640625 14.875 131.56640625 C6.625 131.56640625 -1.625 131.56640625 -10.125 131.56640625 Z M-22.125 145.56640625 C-22.125 167.01640625 -22.125 188.46640625 -22.125 210.56640625 C-17.4724558 206.57851122 -13.04729901 202.62796848 -8.75390625 198.29296875 C-8.18671371 197.72436127 -7.61952118 197.15575378 -7.03514099 196.56991577 C-5.25020087 194.77944389 -3.46879744 192.98550141 -1.6875 191.19140625 C-0.46703061 189.96591302 0.75367053 188.74065053 1.97460938 187.515625 C4.94408756 184.53520851 7.91040257 181.55167731 10.875 178.56640625 C6.97951907 173.90806506 2.93801094 169.48031851 -1.36328125 165.1953125 C-1.92951706 164.62811996 -2.49575287 164.06092743 -3.07914734 163.47654724 C-4.26190579 162.29311452 -5.44590288 161.11091852 -6.63110352 159.92993164 C-8.45382089 158.11263389 -10.27105809 156.289976 -12.08789062 154.46679688 C-13.24186647 153.31348078 -14.3961519 152.16047434 -15.55078125 151.0078125 C-16.0955159 150.46105362 -16.64025055 149.91429474 -17.20149231 149.35096741 C-19.31007119 146.74361874 -19.31007119 146.74361874 -22.125 145.56640625 Z M174.875 182.56640625 C174.875 191.80640625 174.875 201.04640625 174.875 210.56640625 C183.785 210.56640625 192.695 210.56640625 201.875 210.56640625 C201.875 201.32640625 201.875 192.08640625 201.875 182.56640625 C192.965 182.56640625 184.055 182.56640625 174.875 182.56640625 Z M12.53990173 200.78125 C11.97364578 201.34972656 11.40738983 201.91820312 10.82397461 202.50390625 C10.18338608 203.14457031 9.54279755 203.78523437 8.88279724 204.4453125 C8.18799759 205.14527344 7.49319794 205.84523437 6.77734375 206.56640625 C5.71405602 207.63181641 5.71405602 207.63181641 4.62928772 208.71875 C2.35467979 210.99897773 0.08356403 213.28264936 -2.1875 215.56640625 C-3.72438144 217.10830014 -5.26148782 218.64996987 -6.79882812 220.19140625 C-10.57683745 223.98047083 -14.35198153 227.77237229 -18.125 231.56640625 C-16.81309387 234.46419266 -15.4085028 236.53192108 -13.15991211 238.77441406 C-12.5626683 239.3747345 -11.9654245 239.97505493 -11.3500824 240.59356689 C-10.38595177 241.54691925 -10.38595177 241.54691925 -9.40234375 242.51953125 C-8.74166397 243.17975281 -8.08098419 243.83997437 -7.40028381 244.52020264 C-6.00644496 245.91102566 -4.6101817 247.2994227 -3.21166992 248.68554688 C-1.06173425 250.81716547 1.08003116 252.95673877 3.22070312 255.09765625 C4.5750486 256.4470887 5.92985052 257.79606324 7.28515625 259.14453125 C7.92993423 259.78819641 8.57471222 260.43186157 9.23902893 261.09503174 C11.6812122 264.12101804 11.6812122 264.12101804 14.875 265.56640625 C14.875 243.78640625 14.875 222.00640625 14.875 199.56640625 C13.69742441 199.45423761 13.69742441 199.45423761 12.53990173 200.78125 Z M-22.125 254.56640625 C-22.125 276.01640625 -22.125 297.46640625 -22.125 319.56640625 C-17.4724558 315.57851122 -13.04729901 311.62796848 -8.75390625 307.29296875 C-8.18671371 306.72436127 -7.61952118 306.15575378 -7.03514099 305.56991577 C-5.25020087 303.77944389 -3.46879744 301.98550141 -1.6875 300.19140625 C-0.46703061 298.96591302 0.75367053 297.74065053 1.97460938 296.515625 C4.94408756 293.53520851 7.91040257 290.55167731 10.875 287.56640625 C6.97951907 282.90806506 2.93801094 278.48031851 -1.36328125 274.1953125 C-1.92951706 273.62811996 -2.49575287 273.06092743 -3.07914734 272.47654724 C-4.26190579 271.29311452 -5.44590288 270.11091852 -6.63110352 268.92993164 C-8.45382089 267.11263389 -10.27105809 265.289976 -12.08789062 263.46679688 C-13.24186647 262.31348078 -14.3961519 261.16047434 -15.55078125 260.0078125 C-16.0955159 259.46105362 -16.64025055 258.91429474 -17.20149231 258.35096741 C-19.31007119 255.74361874 -19.31007119 255.74361874 -22.125 254.56640625 Z M12.53990173 309.78125 C11.97364578 310.34972656 11.40738983 310.91820312 10.82397461 311.50390625 C10.18338608 312.14457031 9.54279755 312.78523438 8.88279724 313.4453125 C8.18799759 314.14527344 7.49319794 314.84523438 6.77734375 315.56640625 C5.71405602 316.63181641 5.71405602 316.63181641 4.62928772 317.71875 C2.35467979 319.99897773 0.08356403 322.28264936 -2.1875 324.56640625 C-3.72438144 326.10830014 -5.26148782 327.64996987 -6.79882812 329.19140625 C-10.57683745 332.98047083 -14.35198153 336.77237229 -18.125 340.56640625 C-16.81309387 343.46419266 -15.4085028 345.53192108 -13.15991211 347.77441406 C-12.5626683 348.3747345 -11.9654245 348.97505493 -11.3500824 349.59356689 C-10.38595177 350.54691925 -10.38595177 350.54691925 -9.40234375 351.51953125 C-8.74166397 352.17975281 -8.08098419 352.83997437 -7.40028381 353.52020264 C-6.00644496 354.91102566 -4.6101817 356.2994227 -3.21166992 357.68554688 C-1.06173425 359.81716547 1.08003116 361.95673877 3.22070312 364.09765625 C4.5750486 365.4470887 5.92985052 366.79606324 7.28515625 368.14453125 C7.92993423 368.78819641 8.57471222 369.43186157 9.23902893 370.09503174 C11.6812122 373.12101804 11.6812122 373.12101804 14.875 374.56640625 C14.875 352.78640625 14.875 331.00640625 14.875 308.56640625 C13.69742441 308.45423761 13.69742441 308.45423761 12.53990173 309.78125 Z M-22.125 363.56640625 C-22.125 385.34640625 -22.125 407.12640625 -22.125 429.56640625 C-17.4724558 425.57851122 -13.04729901 421.62796848 -8.75390625 417.29296875 C-8.18671371 416.72436127 -7.61952118 416.15575378 -7.03514099 415.56991577 C-5.25020087 413.77944389 -3.46879744 411.98550141 -1.6875 410.19140625 C-0.46703061 408.96591302 0.75367053 407.74065053 1.97460938 406.515625 C4.94408756 403.53520851 7.91040257 400.55167731 10.875 397.56640625 C9.56309387 394.66861984 8.1585028 392.60089142 5.90991211 390.35839844 C5.3126683 389.758078 4.7154245 389.15775757 4.1000824 388.53924561 C3.45732864 387.90367737 2.81457489 387.26810913 2.15234375 386.61328125 C1.49166397 385.95305969 0.83098419 385.29283813 0.15028381 384.61260986 C-1.24355504 383.22178684 -2.6398183 381.8333898 -4.03833008 380.44726562 C-6.18826575 378.31564703 -8.33003116 376.17607373 -10.47070312 374.03515625 C-11.8250486 372.6857238 -13.17985052 371.33674926 -14.53515625 369.98828125 C-15.50232323 369.02278351 -15.50232323 369.02278351 -16.48902893 368.03778076 C-18.9312122 365.01179446 -18.9312122 365.01179446 -22.125 363.56640625 Z M10.1025238 421.19993591 C9.58271439 421.72176956 9.06290497 422.24360321 8.52734375 422.78125 C7.99605362 423.3115834 7.46476349 423.84191681 6.91737366 424.38832092 C5.79223582 425.51277679 4.66836572 426.63850234 3.5456543 427.76538086 C1.81995309 429.49643006 0.08899664 431.22209406 -1.64257812 432.94726562 C-2.73209163 434.03743991 -3.82129491 435.12792434 -4.91015625 436.21875 C-5.69290672 436.99846413 -5.69290672 436.99846413 -6.49147034 437.79393005 C-9.00647591 439.83351721 -9.00647591 439.83351721 -10.125 442.56640625 C-1.875 442.56640625 6.375 442.56640625 14.875 442.56640625 C14.875 434.31640625 14.875 426.06640625 14.875 417.56640625 C12.77599348 417.56640625 11.50822843 419.80345443 10.1025238 421.19993591 Z M-57.125 459.56640625 C-57.125 466.49640625 -57.125 473.42640625 -57.125 480.56640625 C-21.815 480.56640625 13.495 480.56640625 49.875 480.56640625 C49.875 473.63640625 49.875 466.70640625 49.875 459.56640625 C14.565 459.56640625 -20.745 459.56640625 -57.125 459.56640625 Z " fill="#000000" transform="translate(139.125,7.43359375)"/>
<path d="M0 0 C0.72392441 -0.00335861 1.44784882 -0.00671722 2.19371033 -0.01017761 C4.58830478 -0.01968104 6.98282926 -0.02163046 9.37744141 -0.02270508 C11.04269439 -0.02591824 12.70794708 -0.02928236 14.37319946 -0.03279114 C17.86518 -0.03878099 21.35713578 -0.0406312 24.84912109 -0.04003906 C29.32028839 -0.03993748 33.79129674 -0.05358582 38.26242638 -0.07081127 C41.70255256 -0.08193882 45.14264041 -0.08395803 48.58278275 -0.08342934 C50.23097913 -0.08460846 51.87917654 -0.08902645 53.52735519 -0.0967617 C55.83475571 -0.10657623 58.14181251 -0.10367781 60.44921875 -0.09765625 C62.41754166 -0.09979378 62.41754166 -0.09979378 64.42562866 -0.10197449 C68.77444572 0.21164157 71.68738063 0.86223114 74.65478516 4.12573242 C76.42068335 8.57211453 76.17197229 12.72410321 76.04150391 17.45776367 C76.02796875 18.38911133 76.01443359 19.32045898 76.00048828 20.2800293 C75.96527273 22.56904014 75.91602489 24.85684826 75.85400391 27.14526367 C76.40862305 27.12431641 76.96324219 27.10336914 77.53466797 27.08178711 C80.05759413 26.99842819 82.58023039 26.94654499 85.10400391 26.89526367 C85.97669922 26.86174805 86.84939453 26.82823242 87.74853516 26.79370117 C89.01503906 26.77436523 89.01503906 26.77436523 90.30712891 26.75463867 C91.08217773 26.73369141 91.85722656 26.71274414 92.65576172 26.69116211 C95.76232863 27.33290072 96.85682113 28.72069723 98.85400391 31.14526367 C99.35540056 33.59312391 99.35540056 33.59312391 99.35736847 36.38957977 C99.36779946 37.45751282 99.37823045 38.52544587 99.38897753 39.62574053 C99.38005464 40.79809991 99.37113175 41.9704593 99.36193848 43.17834473 C99.37129842 45.04746309 99.37129842 45.04746309 99.38084745 46.95434141 C99.39406098 50.41536755 99.38928028 53.87552794 99.37690258 57.33650184 C99.36786767 61.06799819 99.38181403 64.79941784 99.39282227 68.53089905 C99.41062884 75.8416924 99.40675804 83.15232169 99.3951717 90.46312153 C99.38614603 96.40360496 99.38490962 102.34404233 99.38926697 108.28453064 C99.3898799 109.12931897 99.39049283 109.97410729 99.39112434 110.84449527 C99.39240321 112.56055122 99.39370006 114.27660716 99.3950147 115.99266309 C99.40642676 132.0922682 99.393297 148.19178229 99.37181324 164.29137248 C99.35394168 178.11201853 99.35704561 191.9325302 99.37548828 205.75317383 C99.39688396 221.79431831 99.40532807 237.83538295 99.39303923 253.87653971 C99.391765 255.58635869 99.39050752 257.29617769 99.38926697 259.0059967 C99.38834131 260.26796295 99.38834131 260.26796295 99.38739696 261.55542347 C99.38394015 267.49025111 99.38977953 273.42502821 99.39918518 279.35984802 C99.4103921 286.59032901 99.40739278 293.82063625 99.3860622 301.05109727 C99.37553402 304.74175352 99.37145969 308.43211988 99.38465881 312.12277412 C99.39873628 316.11940834 99.38195225 320.1155656 99.36193848 324.11218262 C99.37532281 325.8707217 99.37532281 325.8707217 99.38897753 327.66478682 C99.37854654 328.73271986 99.36811555 329.80065291 99.35736847 330.90094757 C99.35671906 331.823778 99.35606965 332.74660844 99.35540056 333.69740343 C98.68657351 336.96267282 97.48389661 338.1471664 94.85400391 340.14526367 C92.75880527 340.647811 92.75880527 340.647811 90.46864319 340.65142155 C89.15412375 340.66799308 89.15412375 340.66799308 87.81304836 340.68489939 C86.37551252 340.67253824 86.37551252 340.67253824 84.90893555 340.65992737 C83.37671026 340.67034566 83.37671026 340.67034566 81.81353092 340.68097442 C78.38018722 340.69931565 74.94752894 340.68896001 71.51416016 340.67871094 C69.05703207 340.68576574 66.59990833 340.69450889 64.14279175 340.70481873 C58.15545358 340.72502677 52.16838609 340.7263282 46.18104148 340.71819318 C41.31559141 340.71189655 36.45019679 340.71302709 31.58474731 340.71946526 C30.89260386 340.72036691 30.2004604 340.72126857 29.48734289 340.72219754 C28.08132194 340.72404872 26.675301 340.72591128 25.26928008 340.7277851 C12.08110428 340.74436857 -1.10696457 340.73563955 -14.29513395 340.71879952 C-26.36527592 340.70410005 -38.43516902 340.71873334 -50.50527894 340.74756969 C-62.89490805 340.7769493 -75.28442224 340.78794032 -87.67408466 340.77838749 C-89.07496959 340.77736492 -90.47585454 340.77637031 -91.8767395 340.77540398 C-92.91066665 340.77468939 -92.91066665 340.77468939 -93.96548122 340.77396037 C-98.82581711 340.77179444 -103.68604441 340.7816097 -108.5463562 340.796175 C-115.08649103 340.81550076 -121.62623661 340.80864283 -128.16637802 340.7839756 C-130.57063437 340.77894986 -132.97492573 340.78250279 -135.37915421 340.79512405 C-138.65361898 340.81095767 -141.92653727 340.79619399 -145.20092773 340.77345276 C-146.15928496 340.78528849 -147.11764219 340.79712422 -148.10504055 340.8093186 C-154.41359487 340.71989608 -154.41359487 340.71989608 -157.73539639 338.11365414 C-159.51976565 334.35872304 -159.70505072 331.09695298 -159.66065979 327.02282715 C-159.66760532 326.20945593 -159.67455085 325.39608472 -159.68170685 324.55806589 C-159.69999093 321.83489908 -159.68970885 319.11260206 -159.67944336 316.3894043 C-159.68650108 314.43620654 -159.69524547 312.48301425 -159.70555115 310.52983093 C-159.72807005 305.22615195 -159.72509972 299.92277103 -159.71622968 294.61906242 C-159.71112337 290.19289256 -159.71840937 285.76677888 -159.72570175 281.3406148 C-159.74270835 270.90061065 -159.73912677 260.46075266 -159.72241211 250.02075195 C-159.70548397 239.24549916 -159.72133327 228.47065126 -159.75363499 217.69544268 C-159.78031108 208.44690211 -159.78761241 199.19848773 -159.77911991 189.94991255 C-159.77418567 184.42487572 -159.7764335 178.90008263 -159.79690742 173.37507629 C-159.81523372 168.18091992 -159.80934305 162.98734724 -159.78470802 157.79322243 C-159.77969072 155.88605352 -159.78321364 153.97884037 -159.79585648 152.07170677 C-159.81174248 149.46969641 -159.79687964 146.86961868 -159.77418518 144.2677002 C-159.78602091 143.51137629 -159.79785664 142.75505239 -159.81005102 141.97580957 C-159.73962402 138.00676252 -159.27486579 136.30520486 -156.75121975 133.17308807 C-153.97182425 131.00969377 -152.9459475 130.53982315 -149.50146484 130.65698242 C-148.66035156 130.6730957 -147.81923828 130.68920898 -146.95263672 130.70581055 C-146.08832031 130.74770508 -145.22400391 130.78959961 -144.33349609 130.83276367 C-143.00801758 130.86660156 -143.00801758 130.86660156 -141.65576172 130.90112305 C-139.48510699 130.95978939 -137.31532919 131.04946388 -135.14599609 131.14526367 C-135.17741699 130.23031128 -135.17741699 130.23031128 -135.20947266 129.296875 C-135.29292471 126.51734073 -135.3447462 123.73807047 -135.39599609 120.95776367 C-135.44626953 119.51820313 -135.44626953 119.51820313 -135.49755859 118.04956055 C-135.59668862 110.88741644 -135.59668862 110.88741644 -133.25537109 107.03198242 C-129.58414843 103.74827771 -126.55383397 103.98601316 -121.83813477 103.96826172 C-120.70857613 103.95840492 -120.70857613 103.95840492 -119.55619812 103.948349 C-117.05878606 103.92860385 -114.56143417 103.91695068 -112.06396484 103.90698242 C-111.21149988 103.90290689 -110.35903492 103.89883137 -109.48073769 103.89463234 C-104.96868761 103.8737663 -100.45666799 103.85946697 -95.94458008 103.85009766 C-91.2837847 103.83903267 -86.62346669 103.80463353 -81.96284008 103.76492596 C-78.37945162 103.7387816 -74.79617725 103.73040777 -71.2127018 103.72681618 C-69.49470102 103.72194447 -67.77670553 103.71031381 -66.05879784 103.69177818 C-63.65282747 103.66743256 -61.24809682 103.66834288 -58.84204102 103.67529297 C-58.13380188 103.66248291 -57.42556274 103.64967285 -56.69586182 103.63647461 C-51.91405225 103.68676185 -49.50457605 104.76388497 -46.14599609 108.14526367 C-44.91962039 110.59801508 -45.03184295 112.19584178 -45.04833984 114.93432617 C-45.05317383 116.34584961 -45.05317383 116.34584961 -45.05810547 117.78588867 C-45.07067383 119.2631543 -45.07067383 119.2631543 -45.08349609 120.77026367 C-45.08800781 121.7628418 -45.09251953 122.75541992 -45.09716797 123.77807617 C-45.10897465 126.23386527 -45.12544209 128.68953471 -45.14599609 131.14526367 C-42.83599609 131.14526367 -40.52599609 131.14526367 -38.14599609 131.14526367 C-38.15487854 129.91608719 -38.16376099 128.68691071 -38.1729126 127.42048645 C-38.25397554 115.84048927 -38.31395064 104.26054961 -38.35324478 92.68033314 C-38.37412541 86.72670993 -38.40245227 80.77331566 -38.44775391 74.81982422 C-38.49119388 69.07508275 -38.51512962 63.33056159 -38.52550507 57.58566856 C-38.53289969 55.39318053 -38.54733954 53.20070465 -38.56891632 51.00831032 C-38.59792511 47.93886827 -38.60195307 44.87033818 -38.60009766 41.80078125 C-38.61447876 40.89303452 -38.62885986 39.98528778 -38.64367676 39.05003357 C-38.61639411 34.88283438 -38.48781166 32.7015218 -36.26074219 29.07727051 C-33.74836134 26.7819893 -32.73440705 26.54948127 -29.38037109 26.65698242 C-28.49091797 26.6730957 -27.60146484 26.68920898 -26.68505859 26.70581055 C-25.30447266 26.76865234 -25.30447266 26.76865234 -23.89599609 26.83276367 C-22.96013672 26.85532227 -22.02427734 26.87788086 -21.06005859 26.90112305 C-18.75373935 26.95995772 -16.45068772 27.04209221 -14.14599609 27.14526367 C-14.16694336 26.49976563 -14.18789063 25.85426758 -14.20947266 25.18920898 C-14.29273814 22.25805299 -14.34468815 19.3271459 -14.39599609 16.39526367 C-14.42951172 15.37948242 -14.46302734 14.36370117 -14.49755859 13.31713867 C-14.59652066 5.79602138 -14.59652066 5.79602138 -12.31787109 2.50463867 C-8.19934826 -0.0731418 -4.76336149 0.01385368 0 0 Z M2.85400391 17.14526367 C2.85400391 20.44526367 2.85400391 23.74526367 2.85400391 27.14526367 C21.33400391 27.14526367 39.81400391 27.14526367 58.85400391 27.14526367 C58.85400391 23.84526367 58.85400391 20.54526367 58.85400391 17.14526367 C40.37400391 17.14526367 21.89400391 17.14526367 2.85400391 17.14526367 Z M-21.14599609 44.14526367 C-21.14599609 136.54526367 -21.14599609 228.94526367 -21.14599609 324.14526367 C-17.18599609 324.14526367 -13.22599609 324.14526367 -9.14599609 324.14526367 C-9.14012985 323.17331055 -9.13426361 322.20135742 -9.1282196 321.19995117 C-9.0708912 312.01940888 -8.99807697 302.83910115 -8.91028118 293.65879822 C-8.8656422 288.93962324 -8.82637192 284.22053331 -8.79956055 279.5012207 C-8.77346286 274.94285638 -8.73301503 270.38482045 -8.68280983 265.82666016 C-8.66618473 264.09167581 -8.65464341 262.35663473 -8.64838219 260.62158203 C-8.63869338 258.18251496 -8.61057855 255.74427981 -8.57836914 253.30541992 C-8.57980423 252.59547379 -8.58123932 251.88552765 -8.5827179 251.15406799 C-8.48423056 245.84631248 -7.17704626 241.97026492 -5.14599609 237.14526367 C-4.83662109 236.36151367 -4.52724609 235.57776367 -4.20849609 234.77026367 C-2.79880136 232.61425996 -1.5171139 232.13322943 0.85400391 231.14526367 C1.82337891 230.62963867 2.79275391 230.11401367 3.79150391 229.58276367 C9.13921971 227.07261136 14.25008514 226.97510462 20.08447266 226.94213867 C20.87493484 226.9364386 21.66539703 226.93073853 22.47981262 226.92486572 C24.14985834 226.91544479 25.81992241 226.90889333 27.48999023 226.9050293 C30.01596484 226.89536142 32.54111184 226.86432671 35.06689453 226.83276367 C54.52332339 226.70435865 54.52332339 226.70435865 62.22900391 232.33276367 C67.59252786 238.07939648 69.45343566 243.73472114 69.39990234 251.48901367 C69.41024002 252.2802211 69.4205777 253.07142853 69.43122864 253.88661194 C69.46046598 256.47304164 69.46215171 259.05868232 69.46337891 261.64526367 C69.4783735 263.4498848 69.49510332 265.25449227 69.51348877 267.05908203 C69.55703103 271.78709573 69.57713217 276.51492434 69.59222412 281.24310303 C69.61184268 286.07648605 69.65380728 290.90967057 69.69384766 295.74291992 C69.76900747 305.21030641 69.81938495 314.67764816 69.85400391 324.14526367 C74.14400391 324.14526367 78.43400391 324.14526367 82.85400391 324.14526367 C82.85400391 231.74526367 82.85400391 139.34526367 82.85400391 44.14526367 C48.53400391 44.14526367 14.21400391 44.14526367 -21.14599609 44.14526367 Z M-118.14599609 121.14526367 C-118.14599609 124.44526367 -118.14599609 127.74526367 -118.14599609 131.14526367 C-99.66599609 131.14526367 -81.18599609 131.14526367 -62.14599609 131.14526367 C-62.14599609 127.84526367 -62.14599609 124.54526367 -62.14599609 121.14526367 C-80.62599609 121.14526367 -99.10599609 121.14526367 -118.14599609 121.14526367 Z M-142.14599609 148.14526367 C-142.14599609 206.22526367 -142.14599609 264.30526367 -142.14599609 324.14526367 C-107.82599609 324.14526367 -73.50599609 324.14526367 -38.14599609 324.14526367 C-38.14599609 266.06526367 -38.14599609 207.98526367 -38.14599609 148.14526367 C-72.46599609 148.14526367 -106.78599609 148.14526367 -142.14599609 148.14526367 Z M8.85400391 246.14526367 C7.37411599 249.10503951 7.72389991 252.10504376 7.74047852 255.34887695 C7.74033249 256.09044037 7.74018646 256.83200378 7.74003601 257.59603882 C7.74073391 260.0525808 7.74852057 262.5090474 7.75634766 264.96557617 C7.75821227 266.66665607 7.75963597 268.36773651 7.76063538 270.06881714 C7.76445712 274.55032834 7.7742845 279.03180724 7.78533936 283.51330566 C7.79735734 288.88808016 7.80195735 294.26286545 7.80779266 299.63764954 C7.81749642 307.80687673 7.83665537 315.97603301 7.85400391 324.14526367 C22.70400391 324.14526367 37.55400391 324.14526367 52.85400391 324.14526367 C52.94123491 310.53297769 52.94123491 310.53297769 53.00048828 296.9206543 C53.01843477 291.37019264 53.03968496 285.81987919 53.08032227 280.26953125 C53.1128739 275.79564094 53.13084805 271.32190951 53.13863564 266.84790993 C53.14418671 265.1394278 53.1550264 263.43095455 53.17119408 261.7225399 C53.19291294 259.33290055 53.19597321 256.94392109 53.19458008 254.55419922 C53.20536591 253.84497818 53.21615173 253.13575714 53.2272644 252.40504456 C53.20922094 249.55232728 53.1872261 247.62008366 51.5202179 245.2447052 C47.74484989 242.75355076 43.86192711 242.96886778 39.51806641 242.94213867 C38.80170013 242.9364386 38.08533386 242.93073853 37.34725952 242.92486572 C35.83259553 242.91542831 34.31791113 242.90888674 32.80322266 242.9050293 C30.49426188 242.89532778 28.18619322 242.86429592 25.87744141 242.83276367 C24.40348834 242.82623263 22.92952893 242.82098255 21.45556641 242.81713867 C20.42564072 242.79861847 20.42564072 242.79861847 19.37490845 242.77972412 C15.03039153 242.79976384 12.31100897 243.48801955 8.85400391 246.14526367 Z " fill="#000000" transform="translate(405.14599609375,163.854736328125)"/>
<path d="M0 0 C0.73367798 -0.0049649 1.46735596 -0.00992981 2.2232666 -0.01504517 C4.65031879 -0.02964974 7.07730562 -0.03646573 9.50439453 -0.04199219 C11.19206748 -0.04774479 12.87974041 -0.05350251 14.56741333 -0.05926514 C18.10646875 -0.0697701 21.64550149 -0.07561615 25.18457031 -0.07910156 C29.71633775 -0.08458698 34.24780484 -0.10861802 38.77947807 -0.13707352 C42.26592888 -0.15570914 45.75230745 -0.16090597 49.23880386 -0.16243744 C50.90934009 -0.16546213 52.5798751 -0.17348447 54.2503624 -0.18662262 C56.58901499 -0.20370369 58.92693509 -0.20179821 61.265625 -0.1953125 C61.95359161 -0.20452728 62.64155823 -0.21374207 63.35037231 -0.22323608 C67.65841002 -0.18586597 70.34287599 0.52072386 73.76220703 3.16113281 C75.8953331 6.36082192 76.01494958 7.17954496 76.02963257 10.85409546 C76.03816254 11.81862137 76.0466925 12.78314728 76.05548096 13.77690125 C76.05457458 14.83359512 76.05366821 15.890289 76.05273438 16.97900391 C76.0594516 18.09307114 76.06616882 19.20713837 76.0730896 20.35496521 C76.09213162 24.04821193 76.09599695 27.74127752 76.09814453 31.43457031 C76.10456814 33.99663366 76.11129617 36.55869627 76.11831665 39.12075806 C76.13030497 44.49589042 76.13408138 49.87095066 76.1328125 55.24609375 C76.13161127 61.45541707 76.15270848 67.66439268 76.18429983 73.87362802 C76.21362115 79.84999813 76.22078814 85.82617972 76.21959305 91.80263138 C76.22195611 94.34398443 76.23081904 96.88533994 76.24625778 99.42664719 C76.2658205 102.97955032 76.26011709 106.53155552 76.24804688 110.08447266 C76.25928589 111.13711807 76.2705249 112.18976349 76.28210449 113.27430725 C76.22041572 120.40846992 76.22041572 120.40846992 73.85684204 124.29092407 C70.19388023 127.56142378 67.15545091 127.32043827 62.4543457 127.33813477 C61.32478706 127.34799156 61.32478706 127.34799156 60.17240906 127.35804749 C57.674997 127.37779263 55.1776451 127.3894458 52.68017578 127.39941406 C51.82771082 127.40348959 50.97524586 127.40756512 50.09694862 127.41176414 C45.58489854 127.43263018 41.07287892 127.44692952 36.56079102 127.45629883 C31.89999564 127.46736381 27.23967762 127.50176296 22.57905102 127.54147053 C18.99566255 127.56761489 15.41238819 127.57598871 11.82891273 127.57958031 C10.11091196 127.58445202 8.39291647 127.59608267 6.67500877 127.6146183 C4.26903841 127.63896392 1.86430776 127.6380536 -0.54174805 127.63110352 C-1.24998718 127.64391357 -1.95822632 127.65672363 -2.68792725 127.66992188 C-7.46973681 127.61963464 -9.87921301 126.54251151 -13.23779297 123.16113281 C-14.43653164 120.76365548 -14.37133735 119.26597304 -14.38496399 116.58842468 C-14.39211929 115.62527344 -14.3992746 114.66212219 -14.40664673 113.66978455 C-14.40933563 112.60949539 -14.41202454 111.54920624 -14.41479492 110.45678711 C-14.42465172 108.7859053 -14.42465172 108.7859053 -14.43470764 107.08126831 C-14.45447295 103.38262877 -14.46610988 99.68402988 -14.47607422 95.98535156 C-14.48014975 94.7246818 -14.48422527 93.46401203 -14.4884243 92.16514015 C-14.50714388 86.18238299 -14.52170714 80.19965056 -14.53003627 74.21687192 C-14.53980823 67.31176549 -14.56612612 60.40697966 -14.60653716 53.50198621 C-14.64033965 47.52083076 -14.65218156 41.53983093 -14.65624046 35.55857277 C-14.66112069 33.01442095 -14.67277519 30.47027291 -14.69127846 27.9261837 C-14.71554762 24.3684149 -14.71472687 20.81148782 -14.70776367 17.25366211 C-14.72057373 16.19944565 -14.73338379 15.14522919 -14.74658203 14.05906677 C-14.71479603 9.61142392 -14.68458936 6.92058933 -12.3959198 3.03034973 C-8.58363925 -0.27157822 -4.78480686 0.00772922 0 0 Z M2.76220703 17.16113281 C2.76220703 23.76113281 2.76220703 30.36113281 2.76220703 37.16113281 C9.03220703 37.16113281 15.30220703 37.16113281 21.76220703 37.16113281 C21.76220703 30.56113281 21.76220703 23.96113281 21.76220703 17.16113281 C15.49220703 17.16113281 9.22220703 17.16113281 2.76220703 17.16113281 Z M38.76220703 17.16113281 C38.76220703 23.76113281 38.76220703 30.36113281 38.76220703 37.16113281 C45.36220703 37.16113281 51.96220703 37.16113281 58.76220703 37.16113281 C58.76220703 30.56113281 58.76220703 23.96113281 58.76220703 17.16113281 C52.16220703 17.16113281 45.56220703 17.16113281 38.76220703 17.16113281 Z M2.76220703 54.16113281 C2.76220703 60.43113281 2.76220703 66.70113281 2.76220703 73.16113281 C9.03220703 73.16113281 15.30220703 73.16113281 21.76220703 73.16113281 C21.76220703 66.89113281 21.76220703 60.62113281 21.76220703 54.16113281 C15.49220703 54.16113281 9.22220703 54.16113281 2.76220703 54.16113281 Z M38.76220703 54.16113281 C38.76220703 60.43113281 38.76220703 66.70113281 38.76220703 73.16113281 C45.36220703 73.16113281 51.96220703 73.16113281 58.76220703 73.16113281 C58.76220703 66.89113281 58.76220703 60.62113281 58.76220703 54.16113281 C52.16220703 54.16113281 45.56220703 54.16113281 38.76220703 54.16113281 Z M2.76220703 90.16113281 C2.76220703 96.76113281 2.76220703 103.36113281 2.76220703 110.16113281 C9.03220703 110.16113281 15.30220703 110.16113281 21.76220703 110.16113281 C21.76220703 103.56113281 21.76220703 96.96113281 21.76220703 90.16113281 C15.49220703 90.16113281 9.22220703 90.16113281 2.76220703 90.16113281 Z M38.76220703 90.16113281 C38.76220703 96.76113281 38.76220703 103.36113281 38.76220703 110.16113281 C45.36220703 110.16113281 51.96220703 110.16113281 58.76220703 110.16113281 C58.76220703 103.56113281 58.76220703 96.96113281 58.76220703 90.16113281 C52.16220703 90.16113281 45.56220703 90.16113281 38.76220703 90.16113281 Z " fill="#000000" transform="translate(284.23779296875,335.8388671875)"/>
<path d="M0 0 C0.78419815 -0.00700928 1.5683963 -0.01401855 2.37635803 -0.02124023 C4.96545955 -0.03882832 7.55346573 -0.02719518 10.14257812 -0.01367188 C11.94332082 -0.01636657 13.74406209 -0.0202488 15.5447998 -0.02526855 C19.31760521 -0.03116468 23.09003164 -0.02259707 26.86279297 -0.00390625 C31.69859736 0.01888351 36.53351377 0.00576102 41.36928558 -0.01819611 C45.08736867 -0.03265106 48.80524126 -0.02804952 52.52333069 -0.01768494 C54.30632126 -0.01501681 56.08933095 -0.01829045 57.87229919 -0.02760315 C60.36459969 -0.03776399 62.85546281 -0.02227559 65.34765625 0 C66.08440079 -0.00809692 66.82114532 -0.01619385 67.58021545 -0.02453613 C70.99239104 0.03195726 72.84959246 0.27107812 75.60046387 2.36242676 C77.96537751 5.60182085 78.30008426 8.20207477 78.31427002 12.09664917 C78.31998016 13.03593262 78.32569031 13.97521606 78.33157349 14.94296265 C78.33325027 16.48592514 78.33325027 16.48592514 78.33496094 18.06005859 C78.34240829 19.68726837 78.34240829 19.68726837 78.3500061 21.34735107 C78.36463522 24.94316233 78.37143065 28.53892948 78.37695312 32.13476562 C78.38270352 34.62956748 78.38846126 37.12436932 78.39422607 39.61917114 C78.40339387 44.18385239 78.40969361 48.74852096 78.41272283 53.31321037 C78.41675793 59.36008053 78.42904434 65.40679552 78.45507812 71.45361328 C78.48258007 77.94097528 78.49546901 84.42820402 78.49739838 90.91562271 C78.50042867 93.38998651 78.50846981 95.86434937 78.52158356 98.33868027 C78.53861054 101.79804726 78.53677184 105.25691686 78.53027344 108.71630859 C78.53948822 109.74090179 78.548703 110.765495 78.55819702 111.82113647 C78.50636639 120.61528489 78.50636639 120.61528489 75.17382812 124.51757812 C71.54430631 126.93725933 68.85718277 126.82010091 64.66064453 126.82397461 C63.89770584 126.83229813 63.13476715 126.84062164 62.34870911 126.84919739 C59.82421784 126.87331123 57.29998488 126.8820711 54.77539062 126.88867188 C53.02045615 126.89763719 51.26552248 126.90675901 49.5105896 126.91603088 C45.83028302 126.9325272 42.15006748 126.94022215 38.46972656 126.94311523 C33.75612192 126.94849966 29.04337404 126.98617885 24.33001137 127.0318594 C20.70456832 127.06161723 17.07933188 127.06883851 13.45377731 127.06984138 C11.7162318 127.07404627 9.97868582 127.08649143 8.24126053 127.10735893 C5.80880181 127.13424819 3.37833276 127.12945673 0.94580078 127.11694336 C0.22978195 127.13177765 -0.48623688 127.14661194 -1.22395325 127.16189575 C-4.73600053 127.11050563 -6.78043056 126.54606159 -9.7724762 124.68289185 C-12.83235667 119.96676874 -12.51752913 115.78609954 -12.45727539 110.27319336 C-12.46443069 109.13772064 -12.471586 108.00224792 -12.47895813 106.83236694 C-12.49586409 103.07989245 -12.47643077 99.32860927 -12.45507812 95.57617188 C-12.45590658 92.96973064 -12.45836507 90.36328946 -12.46238708 87.7568512 C-12.46690451 82.29519938 -12.45105894 76.83389044 -12.4230957 71.37231445 C-12.39102886 65.06063676 -12.39106657 58.74957683 -12.40831047 52.43785518 C-12.42417997 46.36104388 -12.41734296 40.28449511 -12.40037346 34.20768929 C-12.3951839 31.62366302 -12.39568277 29.03961897 -12.40191841 26.45559502 C-12.40735704 22.8475276 -12.3870373 19.24051559 -12.35961914 15.63256836 C-12.36614502 14.56076828 -12.3726709 13.4889682 -12.37939453 12.38468933 C-12.28783652 5.31352664 -12.28783652 5.31352664 -10.28196716 1.85523987 C-6.87472228 -0.00067262 -3.78392112 -0.04158581 0 0 Z M5.17382812 17.51757812 C5.17382812 23.78757813 5.17382812 30.05757813 5.17382812 36.51757812 C11.44382812 36.51757812 17.71382813 36.51757812 24.17382812 36.51757812 C24.17382812 30.24757813 24.17382812 23.97757813 24.17382812 17.51757812 C17.90382813 17.51757812 11.63382812 17.51757812 5.17382812 17.51757812 Z M41.17382812 17.51757812 C41.17382812 23.78757813 41.17382812 30.05757813 41.17382812 36.51757812 C47.77382813 36.51757812 54.37382812 36.51757812 61.17382812 36.51757812 C61.17382812 30.24757813 61.17382812 23.97757813 61.17382812 17.51757812 C54.57382812 17.51757812 47.97382813 17.51757812 41.17382812 17.51757812 Z M5.17382812 53.51757812 C5.17382812 60.11757813 5.17382812 66.71757812 5.17382812 73.51757812 C11.44382812 73.51757812 17.71382813 73.51757812 24.17382812 73.51757812 C24.17382812 66.91757812 24.17382812 60.31757813 24.17382812 53.51757812 C17.90382813 53.51757812 11.63382812 53.51757812 5.17382812 53.51757812 Z M41.17382812 53.51757812 C41.17382812 60.11757813 41.17382812 66.71757812 41.17382812 73.51757812 C47.77382813 73.51757812 54.37382812 73.51757812 61.17382812 73.51757812 C61.17382812 66.91757812 61.17382812 60.31757813 61.17382812 53.51757812 C54.57382812 53.51757812 47.97382813 53.51757812 41.17382812 53.51757812 Z M5.17382812 90.51757812 C5.17382812 96.78757812 5.17382812 103.05757813 5.17382812 109.51757812 C11.44382812 109.51757812 17.71382813 109.51757812 24.17382812 109.51757812 C24.17382812 103.24757813 24.17382812 96.97757812 24.17382812 90.51757812 C17.90382813 90.51757812 11.63382812 90.51757812 5.17382812 90.51757812 Z M41.17382812 90.51757812 C41.17382812 96.78757812 41.17382812 103.05757813 41.17382812 109.51757812 C47.77382813 109.51757812 54.37382812 109.51757812 61.17382812 109.51757812 C61.17382812 103.24757813 61.17382812 96.97757812 61.17382812 90.51757812 C54.57382812 90.51757812 47.97382813 90.51757812 41.17382812 90.51757812 Z " fill="##F5F5F5" transform="translate(402.826171875,229.482421875)"/>
</svg>
