<?xml version="1.0" encoding="UTF-8"?>
<svg version="1.1" xmlns="http://www.w3.org/2000/svg" width="512" height="512">
<path d="M0 0 C0.73395996 0.16628906 1.46791992 0.33257812 2.22412109 0.50390625 C43.85450918 10.23357929 79.25879643 37.04318231 102 73 C117.39688781 98.59132212 125.47559607 126.80606559 125.3125 156.6875 C125.30976578 157.73407272 125.30976578 157.73407272 125.30697632 158.80178833 C125.25756758 170.07647627 124.63995071 181.00366989 122 192 C121.83371094 192.69480469 121.66742188 193.38960937 121.49609375 194.10546875 C114.90082095 220.53541381 102.57748156 244.93521207 83.953125 264.89453125 C82.35939276 266.61257461 80.88541074 268.34865335 79.4375 270.1875 C55.60170439 297.69034109 15.68520939 314.36613026 -20 317 C-36.72883737 317.63673775 -53.63370712 317.89973967 -70 314 C-71.25466064 313.70198486 -71.25466064 313.70198486 -72.53466797 313.39794922 C-85.3074129 310.25479447 -97.21171746 305.81352463 -109 300 C-110.53720703 299.24396484 -110.53720703 299.24396484 -112.10546875 298.47265625 C-148.51161912 279.50783622 -175.17216576 245.66655436 -187.93164062 206.99462891 C-196.89113182 178.4499829 -198.5642385 146.04766301 -191 117 C-190.81276367 116.27232422 -190.62552734 115.54464844 -190.43261719 114.79492188 C-183.60139868 89.14540713 -170.21908267 66.19000557 -152 47 C-151.53110352 46.49855469 -151.06220703 45.99710938 -150.57910156 45.48046875 C-128.78402768 22.28881732 -99.96580834 7.01574406 -69 0 C-67.94353271 -0.24556641 -67.94353271 -0.24556641 -66.86572266 -0.49609375 C-45.53880302 -5.23432148 -21.25718973 -4.94104433 0 0 Z " fill="#00FF7F" transform="translate(291,99)"/>
<path d="M0 0 C2.63181751 1.34156859 5.19101486 2.76975565 7.74853516 4.24804688 C8.7034082 4.78453857 9.65828125 5.32103027 10.64208984 5.8737793 C19.10274528 10.65561743 27.46381897 15.61142556 35.81103516 20.58789062 C41.94566616 24.23880103 48.12448318 27.8110087 54.31103516 31.37304688 C55.38780518 31.99348877 56.4645752 32.61393066 57.57397461 33.25317383 C62.65921768 36.18152164 67.74699306 39.10541522 72.83779907 42.02407837 C74.59335733 43.03100289 76.34829358 44.03900273 78.10302734 45.04736328 C80.29121384 46.30445345 82.48057893 47.55949542 84.67138672 48.81201172 C89.67314275 51.68701787 94.64700973 54.6066503 99.56494141 57.62304688 C100.43062744 58.1515625 101.29631348 58.68007812 102.18823242 59.22460938 C105.41209559 61.63413114 107.75919673 64.39437002 109.56103516 67.99804688 C110.089446 72.81438181 110.10847317 76.81193118 108.06103516 81.24804688 C101.99814662 87.91722427 94.15821871 92.12085403 86.36572266 96.48681641 C83.2370739 98.23990937 80.11879701 100.01133465 76.99853516 101.77929688 C76.36705566 102.13636719 75.73557617 102.4934375 75.08496094 102.86132812 C69.21148676 106.18553556 63.38233623 109.58336947 57.56103516 112.99804688 C47.68406062 118.78094299 37.77018962 124.49771757 27.8137207 130.14257812 C22.31722102 133.26142323 16.84531423 136.40918633 11.43603516 139.67773438 C10.49139404 140.24089355 9.54675293 140.80405273 8.57348633 141.38427734 C6.83739583 142.42194424 5.11009107 143.47453221 3.39428711 144.54541016 C-1.96143145 147.7203671 -6.21160898 148.9609033 -12.43896484 147.99804688 C-14.92724609 147.15039062 -14.92724609 147.15039062 -16.75146484 145.93554688 C-17.36634766 145.55269531 -17.98123047 145.16984375 -18.61474609 144.77539062 C-23.04186749 140.46202824 -24.66940104 136.49227699 -24.94689941 130.41319275 C-24.97056997 128.18631122 -24.97231025 125.95912924 -24.95654297 123.73217773 C-24.96355225 122.51184341 -24.97056152 121.29150909 -24.9777832 120.03419495 C-24.99232675 116.70338208 -24.98898298 113.37356895 -24.97626686 110.04281306 C-24.96610057 106.54891976 -24.97554236 103.05506756 -24.98181152 99.56117249 C-24.98907647 93.69622171 -24.97952971 87.83147282 -24.96044922 81.96655273 C-24.9386723 75.1947898 -24.94574204 68.42350849 -24.96775484 61.65175718 C-24.98592979 55.82647559 -24.98845731 50.00133864 -24.97800016 44.17603785 C-24.97177796 40.70166384 -24.9708944 37.22751596 -24.98414612 33.75315666 C-24.99788846 29.88008901 -24.97882065 26.00755736 -24.95654297 22.13452148 C-24.96463989 20.9888974 -24.97273682 19.84327332 -24.9810791 18.66293335 C-24.90253655 11.29343257 -24.01636744 7.68040994 -18.84130859 2.35351562 C-12.63467891 -2.59523711 -7.31837736 -3.00646854 0 0 Z " fill="#FDFFFE" transform="translate(221.43896484375,183.001953125)"/>
</svg>
