<?xml version="1.0" encoding="UTF-8"?>
<svg version="1.1" xmlns="http://www.w3.org/2000/svg" width="512" height="512">
<path d="M0 0 C5.68175995 3.95804125 7.03624962 9.99510301 8.75361633 16.37939453 C9.0745929 17.50087891 9.39556946 18.62236328 9.72627258 19.77783203 C10.41971074 22.20353715 11.1039447 24.63188829 11.77998352 27.0625 C12.91863056 31.12671151 14.15002731 35.16046856 15.38642883 39.19580078 C16.01430185 41.26813353 16.64016659 43.34105824 17.26490784 45.41433716 C17.66953476 46.75113517 18.07777981 48.08684413 18.48988342 49.4213562 C23.78149267 66.63387107 23.78149267 66.63387107 20.69111633 75.25439453 C13.07821867 82.52894119 -0.06389644 84.54077994 -9.99247742 87.36376953 C-11.44033374 87.78024449 -12.88803199 88.19726929 -14.33558655 88.61479187 C-17.44242718 89.50979688 -20.55024205 90.40130069 -23.65888977 91.29000854 C-28.67441248 92.72401585 -33.68752574 94.16632163 -38.70024109 95.61010742 C-40.44359915 96.11215201 -42.18696162 96.61418129 -43.93032837 97.11619568 C-44.80486097 97.36802549 -45.67939358 97.61985531 -46.58042717 97.87931633 C-49.27799691 98.65577651 -51.97578842 99.43146159 -54.67364502 100.20692444 C-73.54130474 105.63101894 -92.39260369 111.11104693 -111.2425499 116.59632492 C-115.74636883 117.90675463 -120.25041493 119.21640311 -124.75444031 120.52612305 C-135.54371974 123.66368839 -146.33261719 126.80256587 -157.12138367 129.94189453 C-158.00764687 130.19977753 -158.89391006 130.45766052 -159.80702972 130.72335815 C-172.87038791 134.52454516 -185.93348832 138.32661729 -198.99638367 142.12939453 C-199.77485783 142.35601147 -200.55333199 142.5826284 -201.35539627 142.81611252 C-202.11595196 143.0375153 -202.87650764 143.25891808 -203.66011047 143.48703003 C-204.6467163 143.77423573 -204.6467163 143.77423573 -205.65325356 144.06724358 C-224.20552539 149.46852553 -242.75594812 154.87613209 -261.3054657 160.28686523 C-263.5316256 160.93619299 -265.75778628 161.58551806 -267.98394775 162.23484039 C-273.36310206 163.80382759 -278.74224681 165.37284752 -284.12138367 166.94189453 C-283.45962724 166.94249162 -282.79787081 166.94308871 -282.11606115 166.94370389 C-242.90185997 166.97959167 -203.68773788 167.03622113 -164.4736081 167.11981548 C-159.76594962 167.12983303 -155.05829079 167.13967715 -150.35063171 167.14941406 C-149.41341485 167.15135544 -148.47619798 167.15329681 -147.51058061 167.15529701 C-132.33190899 167.18632479 -117.15325249 167.20329983 -101.97455513 167.21508875 C-86.40177725 167.22749628 -70.8290788 167.25498868 -55.25635105 167.2965076 C-45.64581143 167.3216544 -36.0354035 167.33501095 -26.4248305 167.3333241 C-19.83601778 167.33329437 -13.24733929 167.34790672 -6.65857887 167.37405881 C-2.85620243 167.388718 0.94589874 167.39689651 4.74829865 167.38769722 C8.87118839 167.3778913 12.99334913 167.39890546 17.11618042 167.4229126 C18.31754829 167.41515218 19.51891617 167.40739176 20.75668913 167.39939618 C27.34708135 167.46750352 31.54657007 167.94841036 36.87861633 171.94189453 C39.98694634 175.73557132 40.25690085 178.75265761 40.26679993 183.58056641 C40.27468536 184.54984825 40.27468536 184.54984825 40.2827301 185.53871155 C40.29587424 187.66293914 40.28721265 189.78641005 40.27705383 191.91064453 C40.27907619 193.39367821 40.28198898 194.87671092 40.28575134 196.35974121 C40.2901671 199.46323137 40.28376802 202.56646196 40.26972961 205.66992188 C40.25263787 209.64120904 40.26248311 213.6118879 40.28044701 217.58315277 C40.29130526 220.64415034 40.28782921 223.7050045 40.28006363 226.76600647 C40.27806725 228.22998629 40.28050111 229.69397928 40.28750229 231.15794373 C40.29515081 233.20671915 40.28346682 235.25451956 40.26679993 237.30322266 C40.26441315 238.46728638 40.26202637 239.6313501 40.25956726 240.83068848 C39.73309902 245.13032675 38.14362057 247.76122391 35.00361633 250.69189453 C31.15672175 252.9547737 27.56914672 252.98114715 23.20283508 252.96142578 C22.392901 252.95860596 21.58296692 252.95578613 20.74848938 252.95288086 C20.13143127 252.94925537 19.51437317 252.94562988 18.87861633 252.94189453 C18.8823035 254.23602611 18.88599068 255.53015768 18.88978958 256.86350536 C18.97639632 287.57448363 19.042366 318.28542896 19.08287765 348.9965 C19.08788056 352.77541753 19.09305784 356.5543348 19.0983429 360.33325195 C19.09939214 361.08557532 19.10044138 361.83789869 19.10152242 362.61301974 C19.11893391 374.79908432 19.15047567 386.98507352 19.18722752 399.17109337 C19.22461628 411.67243999 19.2468478 424.17374711 19.25497031 436.67514735 C19.26046239 444.39097887 19.27781668 452.10659735 19.3102822 459.82236329 C19.33389937 465.73599336 19.33644139 471.64951371 19.33104706 477.56319237 C19.33214999 479.99122939 19.34013938 482.41927427 19.35543823 484.84726334 C19.37527116 488.15638448 19.37057929 491.46458603 19.3596344 494.77372742 C19.37128577 495.73968218 19.38293713 496.70563694 19.39494157 497.70086306 C19.35653245 501.98233786 19.2722318 504.30696328 16.9735527 508.01490498 C13.57033191 511.14529644 11.53923726 511.06924312 6.99299908 511.07890892 C5.73111128 511.08398346 4.46922347 511.08905801 3.16909665 511.09428632 C1.75567547 511.09488805 0.34225425 511.09538711 -1.07116699 511.09579468 C-2.56250854 511.09980776 -4.053849 511.10424572 -5.54518813 511.10907423 C-9.6583853 511.12106267 -13.77157073 511.12669342 -17.88478196 511.13125539 C-22.3150212 511.13720282 -26.74524633 511.14881471 -31.17547607 511.1595459 C-41.88146415 511.18408834 -52.5874569 511.19869908 -63.29346445 511.21160597 C-66.31563259 511.21531634 -69.33780027 511.21928969 -72.35996795 511.22335863 C-91.11444152 511.24859186 -109.86891579 511.27065188 -128.6234026 511.28308678 C-132.96916519 511.28601662 -137.31492777 511.28897827 -141.66069031 511.29199219 C-142.7408503 511.29273824 -143.82101029 511.29348429 -144.93390241 511.29425295 C-162.44180068 511.30691346 -179.94959756 511.3401449 -197.4574484 511.38179402 C-215.41908366 511.42417357 -233.38066695 511.44777714 -251.34235209 511.45300734 C-261.43261721 511.45642582 -271.52272382 511.46823238 -281.61293983 511.50111008 C-290.2041321 511.52905703 -298.79513339 511.54013351 -307.3863676 511.52891462 C-311.7718556 511.52371432 -316.15694334 511.52670308 -320.54237366 511.55138016 C-324.55511543 511.57377222 -328.56716709 511.57321196 -332.57992014 511.55417629 C-334.03351572 511.55136208 -335.48715712 511.55705332 -336.94067869 511.57198922 C-338.9131124 511.59102214 -340.88578583 511.57635017 -342.85824299 511.55992699 C-343.95493032 511.56128352 -345.05161765 511.56264004 -346.18153793 511.56403768 C-350.11014059 510.73264942 -351.61122589 509.00450375 -354.12138367 505.94189453 C-355.04662541 503.16616929 -355.24586467 501.53044768 -355.2444315 498.66840839 C-355.24642254 497.79158635 -355.24841359 496.91476431 -355.25046498 496.01137191 C-355.24755213 495.04737336 -355.24463929 494.08337481 -355.24163818 493.09016418 C-355.24249261 492.06671282 -355.24334703 491.04326146 -355.24422735 489.98879641 C-355.24588065 486.54321327 -355.24036318 483.0976783 -355.23490906 479.65209961 C-355.23462713 477.18863425 -355.23478503 474.7251688 -355.23535156 472.26170349 C-355.23557963 466.94970385 -355.23273455 461.63771935 -355.22711372 456.32572365 C-355.21899221 448.64543847 -355.21638283 440.96515924 -355.21512573 433.28487023 C-355.21293624 420.82459437 -355.20627893 408.36432504 -355.19682312 395.90405273 C-355.18764635 383.79890984 -355.18056681 371.69376872 -355.17631531 359.58862305 C-355.17605258 358.84266232 -355.17578986 358.0967016 -355.17551918 357.328136 C-355.17421415 353.58593011 -355.17295044 349.84372419 -355.17170727 346.10151827 C-355.16133786 315.0483056 -355.14364807 283.99510106 -355.12138367 252.94189453 C-356.37564148 252.95607422 -357.62989929 252.97025391 -358.92216492 252.98486328 C-364.2242355 253.04480447 -367.73978461 252.10369374 -371.87138367 248.62939453 C-375.45978057 244.34325379 -376.37197994 240.79370311 -376.34501648 235.25976562 C-376.34552002 234.14024506 -376.34602356 233.02072449 -376.34654236 231.86727905 C-376.33927124 230.66213654 -376.33200012 229.45699402 -376.32450867 228.21533203 C-376.33507123 225.62938955 -376.34683012 223.04345173 -376.35966492 220.45751953 C-376.37221689 216.40758033 -376.37376665 212.35800894 -376.35136414 208.30810547 C-376.29293321 192.99166445 -376.69265395 179.51129238 -382.28886414 165.16918945 C-383.77376489 161.19653561 -384.92745882 157.124994 -386.11357117 153.05517578 C-386.47225281 151.83912659 -386.47225281 151.83912659 -386.83818054 150.59851074 C-387.31834973 148.97037608 -387.79686792 147.34175359 -388.27372742 145.71264648 C-388.76168353 144.05277144 -389.25431424 142.39426446 -389.75126648 140.73706055 C-390.4866736 138.28355734 -391.20784561 135.82625584 -391.92607117 133.36767578 C-392.14786041 132.63736649 -392.36964966 131.90705719 -392.59815979 131.15461731 C-394.15485476 125.7384193 -395.12127529 120.26506374 -393.45732117 114.73486328 C-389.83685216 108.68603092 -384.89136395 107.00272262 -378.35990906 105.13037109 C-377.23065002 104.80346786 -376.10139099 104.47656464 -374.93791199 104.13975525 C-373.7106842 103.79086746 -372.48345642 103.44197968 -371.21903992 103.08251953 C-369.8994271 102.70269094 -368.57997335 102.32230939 -367.26066589 101.94142151 C-364.41025585 101.11963591 -361.55885025 100.30143527 -358.70661926 99.48599243 C-354.09370217 98.16701931 -349.48319285 96.83976691 -344.87309265 95.51098633 C-343.27307577 95.04989595 -341.67305436 94.58882127 -340.07302856 94.12776184 C-339.27023405 93.89642862 -338.46743954 93.66509541 -337.64031792 93.42675209 C-335.15839402 92.71189663 -332.67624503 91.99782783 -330.19403076 91.28398132 C-313.97168327 86.61788051 -297.76441338 81.90051185 -281.55909729 77.17565918 C-274.11297847 75.00470548 -266.66617465 72.83610341 -259.21938896 70.66743851 C-257.5299463 70.17543204 -255.84050972 69.68340472 -254.15107918 69.19135666 C-232.00545855 62.74145762 -209.85594736 56.30494482 -187.70646667 49.86831665 C-166.49073447 43.70298883 -145.27634959 37.53309545 -124.06561279 31.3506012 C-115.75666986 28.92884962 -107.44722437 26.50885636 -99.13627625 24.09399414 C-96.73642592 23.39659228 -94.33658013 22.69917479 -91.93673897 22.00174141 C-90.3622731 21.54418921 -88.78779378 21.08668334 -87.2133007 20.62922478 C-78.1105608 17.9839833 -69.01190779 15.32556508 -59.92029667 12.64230919 C-54.329035 10.99217758 -48.73547969 9.35001753 -43.14003658 7.71412086 C-39.94537507 6.77954853 -36.75285397 5.83882899 -33.56269836 4.88891602 C-30.12086584 3.86442143 -26.67460723 2.85640207 -23.22685242 1.85205078 C-22.23905792 1.55331558 -21.25126343 1.25458038 -20.23353577 0.9467926 C-6.19517363 -3.09003374 -6.19517363 -3.09003374 0 0 Z M-84.61332703 26.10449219 C-86.24108875 26.57866696 -87.86967176 27.0500316 -89.49906921 27.51855469 C-91.84249844 28.1924479 -94.18331774 28.87478592 -96.52372742 29.55908203 C-97.25397629 29.76749725 -97.98422516 29.97591248 -98.73660278 30.19064331 C-102.813118 31.37145847 -102.813118 31.37145847 -106.12138367 33.94189453 C-98.83408815 41.41451236 -91.52535317 48.86541421 -84.18843746 56.28933811 C-80.78228824 59.73724637 -77.38397996 63.1921999 -74.00248718 66.66430664 C-70.73911484 70.01457358 -67.45660718 73.34493975 -64.15989876 76.66239738 C-62.90534828 77.93173508 -61.6578636 79.20809645 -60.41766167 80.49145699 C-58.67943712 82.28772776 -56.91778622 84.05740607 -55.14848328 85.82299805 C-54.64065811 86.35958542 -54.13283295 86.89617279 -53.60961914 87.44902039 C-51.97964569 89.12738538 -51.97964569 89.12738538 -49.12138367 90.94189453 C-45.47132365 90.94738369 -45.47132365 90.94738369 -42.12138367 89.94189453 C-41.02141052 89.67256104 -39.92143738 89.40322754 -38.78813171 89.12573242 C-35.12636461 88.09207808 -31.46587887 87.05482782 -27.80888367 86.00439453 C-26.50882765 85.64019731 -25.20869801 85.27626278 -23.90849304 84.91259766 C-22.68323914 84.56261719 -21.45798523 84.21263672 -20.19560242 83.85205078 C-19.0775824 83.53373291 -17.95956238 83.21541504 -16.80766296 82.88745117 C-14.01234263 82.12099661 -14.01234263 82.12099661 -12.12138367 79.94189453 C-13.02380798 79.04470703 -13.9262323 78.14751953 -14.85600281 77.22314453 C-18.23376753 73.86360971 -21.60811531 70.50066009 -24.98149109 67.13671875 C-26.43630384 65.68690536 -27.8920165 64.23799436 -29.34867859 62.79003906 C-31.45372918 60.6972481 -33.55541986 58.60113079 -35.65653992 56.50439453 C-36.29849808 55.86759766 -36.94045624 55.23080078 -37.60186768 54.57470703 C-41.40893628 50.76810213 -45.00701606 46.83925407 -48.52597046 42.76538086 C-50.57481058 40.42364774 -52.72786662 38.20589192 -54.92607117 36.00439453 C-55.75622742 35.17294922 -56.58638367 34.34150391 -57.44169617 33.48486328 C-58.28474304 32.64568359 -59.12778992 31.80650391 -59.99638367 30.94189453 C-60.86263367 30.07177734 -61.72888367 29.20166016 -62.62138367 28.30517578 C-63.44380554 27.48404297 -64.26622742 26.66291016 -65.11357117 25.81689453 C-65.85977722 25.07181641 -66.60598328 24.32673828 -67.37480164 23.55908203 C-71.16134739 20.05306036 -79.97963073 24.7511438 -84.61332703 26.10449219 Z M-176.87528992 53.12939453 C-177.65073654 53.35135498 -178.42618317 53.57331543 -179.22512817 53.80200195 C-181.71173543 54.51406568 -184.19781276 55.22796071 -186.68388367 55.94189453 C-188.36548981 56.4237857 -190.04712999 56.90555812 -191.72880554 57.38720703 C-195.86006174 58.57072308 -199.99084345 59.75588222 -204.12138367 60.94189453 C-204.44510111 64.07533291 -204.44510111 64.07533291 -202.12275696 66.29455566 C-201.18725006 67.22038452 -200.25174316 68.14621338 -199.28788757 69.10009766 C-198.51729759 69.86893532 -198.51729759 69.86893532 -197.73114014 70.65330505 C-196.02693164 72.35031109 -194.31245829 74.03655444 -192.59794617 75.72314453 C-191.41374108 76.89921525 -190.23026848 78.07602393 -189.04750061 79.25354004 C-185.92777645 82.35612011 -182.79960141 85.4500328 -179.66917419 88.54180908 C-174.66315303 93.48871715 -169.66965675 98.44825941 -164.67678452 103.40843201 C-162.93011499 105.141133 -161.1796869 106.86996523 -159.42866516 108.5982666 C-158.3569163 109.65999068 -157.28524659 110.72179465 -156.21366882 111.78369141 C-155.27657074 112.70952026 -154.33947266 113.63534912 -153.37397766 114.5892334 C-151.12138367 116.94189453 -151.12138367 116.94189453 -149.12138367 119.94189453 C-143.77652732 119.38212917 -138.93734317 118.45453731 -133.77763367 116.87548828 C-133.1230719 116.67713882 -132.46851013 116.47878937 -131.79411316 116.27442932 C-129.73462131 115.64883911 -127.67801902 115.01430462 -125.62138367 114.37939453 C-124.21271196 113.94975938 -122.8038591 113.52071769 -121.39482117 113.09228516 C-117.96822463 112.0489951 -114.54415576 110.9976734 -111.12138367 109.94189453 C-117.4469673 102.17304048 -124.69848373 95.3021782 -131.8144989 88.26928711 C-143.22322325 76.98205121 -143.22322325 76.98205121 -148.43315125 70.86157227 C-151.9353128 66.87928791 -155.73888172 63.18112661 -159.49638367 59.44189453 C-160.31493835 58.61947266 -161.13349304 57.79705078 -161.97685242 56.94970703 C-163.14280945 55.78568359 -163.14280945 55.78568359 -164.33232117 54.59814453 C-165.03663269 53.89496094 -165.74094421 53.19177734 -166.46659851 52.46728516 C-169.55889827 49.61678517 -173.18140905 52.06683661 -176.87528992 53.12939453 Z M-283.22294617 83.84033203 C-284.23945755 84.13286362 -284.23945755 84.13286362 -285.27650452 84.43130493 C-286.70441463 84.84394304 -288.1315368 85.25931637 -289.5579071 85.67724609 C-291.74327678 86.31598645 -293.93204023 86.94192935 -296.12138367 87.56689453 C-297.50962745 87.9697729 -298.89765612 88.37339343 -300.28544617 88.77783203 C-301.54824402 89.14440918 -302.81104187 89.51098633 -304.11210632 89.88867188 C-307.19058336 90.72187947 -307.19058336 90.72187947 -309.12138367 92.94189453 C-308.37042419 93.68761719 -307.61946472 94.43333984 -306.8457489 95.20166016 C-304.02704626 98.00209192 -301.21179448 100.80597198 -298.39750671 103.61083984 C-297.18521118 104.81814518 -295.97201497 106.02454688 -294.75785828 107.22998047 C-288.98679034 112.96065806 -283.26191737 118.65262478 -277.98832703 124.85009766 C-273.45527039 129.92911286 -268.51527637 134.64826378 -263.68388367 139.44189453 C-262.55930037 140.56145085 -261.43494962 141.68124082 -260.31083679 142.80126953 C-257.58369023 145.51750987 -254.8534246 148.23057745 -252.12138367 150.94189453 C-247.17106441 149.56279561 -242.22327251 148.17508753 -237.27763367 146.77929688 C-235.5943837 146.30555812 -233.91046441 145.83419093 -232.22587585 145.36523438 C-229.80643765 144.69126837 -227.38952428 144.00884712 -224.97294617 143.32470703 C-224.21768646 143.11629181 -223.46242676 142.90787659 -222.6842804 142.69314575 C-218.50855406 141.53942758 -218.50855406 141.53942758 -215.12138367 138.94189453 C-222.47239819 131.49829161 -229.83411251 124.06545716 -237.20976639 116.64626312 C-240.63406655 113.20106824 -244.05453879 109.7522433 -247.46659851 106.29492188 C-250.7581728 102.95995807 -254.05935876 99.63479654 -257.36750031 96.31626892 C-258.62931411 95.04705142 -259.88759581 93.7743125 -261.14229584 92.49806213 C-262.89732582 90.71409086 -264.66438107 88.94293738 -266.43486023 87.17431641 C-267.21277672 86.37482826 -267.21277672 86.37482826 -268.00640869 85.55918884 C-273.09363192 80.52962915 -276.78565392 81.98646402 -283.22294617 83.84033203 Z M-380.68388367 112.75439453 C-381.65454773 113.09083984 -382.62521179 113.42728516 -383.62528992 113.77392578 C-386.41089337 114.81441073 -386.41089337 114.81441073 -388.12138367 117.94189453 C-387.78858468 125.22729835 -385.98520688 132.0129831 -383.99638367 139.00439453 C-383.72568054 140.04144531 -383.45497742 141.07849609 -383.17607117 142.14697266 C-381.46217725 148.18003226 -379.55369338 152.5642715 -375.04545593 156.98486328 C-373.12138367 158.94189453 -373.12138367 158.94189453 -371.53129578 161.41064453 C-368.81284966 165.154871 -366.37595126 167.51913123 -361.69285583 168.39727783 C-354.32107254 169.07457324 -346.94525217 168.75920742 -339.55888367 168.50439453 C-337.28747841 168.45920936 -335.01598706 168.41815188 -332.74443054 168.38134766 C-327.20152512 168.28258437 -321.66185595 168.13235951 -316.12138367 167.94189453 C-321.54629698 161.3607477 -327.52503186 155.35633881 -333.53935242 149.32080078 C-334.08173365 148.77559217 -334.62411488 148.23038357 -335.1829319 147.66865349 C-338.04311122 144.79358439 -340.9060738 141.92132312 -343.77153015 139.05151367 C-346.73073235 136.0867858 -349.68051377 133.11286226 -352.62829113 130.13678074 C-354.90089911 127.8455994 -357.18013836 125.56110477 -359.46128273 123.27842522 C-360.5526404 122.18403759 -361.6414925 121.08714546 -362.72778893 119.98773384 C-364.24030139 118.45824324 -365.76190691 116.9384133 -367.28617859 115.4206543 C-368.14966415 114.5535231 -369.01314972 113.68639191 -369.90280151 112.79298401 C-373.62233724 109.68956346 -376.46577977 111.25474907 -380.68388367 112.75439453 Z M-351.12138367 173.94189453 C-351.78138367 175.59189453 -352.44138367 177.24189453 -353.12138367 178.94189453 C-350.57774351 180.21371461 -349.87675314 179.76256728 -347.20732117 178.94580078 C-346.06650085 178.60258789 -346.06650085 178.60258789 -344.90263367 178.25244141 C-344.10857117 178.00558594 -343.31450867 177.75873047 -342.49638367 177.50439453 C-341.69458679 177.26140625 -340.89278992 177.01841797 -340.06669617 176.76806641 C-338.08293699 176.1658538 -336.10189385 175.55470764 -334.12138367 174.94189453 C-334.12138367 174.61189453 -334.12138367 174.28189453 -334.12138367 173.94189453 C-339.73138367 173.94189453 -345.34138367 173.94189453 -351.12138367 173.94189453 Z M-247.12138367 173.94189453 C-249.34888367 178.10814453 -251.57638367 182.27439453 -253.87138367 186.56689453 C-261.10840369 200.08606638 -268.42487708 213.56037961 -275.80155945 227.00390625 C-276.94321247 229.08453101 -278.08409796 231.16557713 -279.22416687 233.24707031 C-280.30289424 235.21650321 -281.38339423 237.18496647 -282.46586609 239.15234375 C-282.94515564 240.02777832 -283.42444519 240.90321289 -283.91825867 241.80517578 C-284.34461609 242.58159424 -284.77097351 243.3580127 -285.21025085 244.15795898 C-286.1971922 245.75646498 -286.1971922 245.75646498 -286.12138367 246.94189453 C-273.25138367 246.94189453 -260.38138367 246.94189453 -247.12138367 246.94189453 C-244.72888367 242.44564453 -242.33638367 237.94939453 -239.87138367 233.31689453 C-231.99989838 218.5459495 -224.03616834 203.82817008 -215.93778992 189.18017578 C-215.42321228 188.24834473 -214.90863464 187.31651367 -214.37846375 186.35644531 C-213.39469716 184.57632661 -212.40894613 182.79730275 -211.42094421 181.01953125 C-210.98693298 180.23465332 -210.55292175 179.44977539 -210.10575867 178.64111328 C-209.52906433 177.60216919 -209.52906433 177.60216919 -208.9407196 176.54223633 C-208.04543016 175.09318894 -208.04543016 175.09318894 -208.12138367 173.94189453 C-220.99138367 173.94189453 -233.86138367 173.94189453 -247.12138367 173.94189453 Z M-143.12138367 181.94189453 C-143.94424866 183.40006592 -143.94424866 183.40006592 -144.78373718 184.88769531 C-145.26769958 185.79503418 -145.75166199 186.70237305 -146.25028992 187.63720703 C-147.08137268 189.18915771 -147.08137268 189.18915771 -147.929245 190.77246094 C-148.50827576 191.85962402 -149.08730652 192.94678711 -149.68388367 194.06689453 C-150.92821314 196.39005881 -152.17301279 198.71297132 -153.41825867 201.03564453 C-154.03894226 202.19451172 -154.65962585 203.35337891 -155.29911804 204.54736328 C-157.99217086 209.56400401 -160.70812115 214.56796399 -163.43388367 219.56689453 C-163.91961853 220.45803955 -164.40535339 221.34918457 -164.9058075 222.26733398 C-168.38893363 228.64055018 -171.92842379 234.98062702 -175.53276062 241.28613281 C-177.33508414 243.95562363 -177.33508414 243.95562363 -178.12138367 246.94189453 C-165.25138367 246.94189453 -152.38138367 246.94189453 -139.12138367 246.94189453 C-132.394482 234.62274931 -125.67919898 222.29778388 -119.00419617 209.95043945 C-116.25198484 204.86257891 -113.48856651 199.78134041 -110.70341492 194.71142578 C-110.15427429 193.71046875 -109.60513367 192.70951172 -109.03935242 191.67822266 C-107.99619455 189.77845706 -106.9507489 187.87994525 -105.90263367 185.98291016 C-105.20073914 184.70383789 -105.20073914 184.70383789 -104.48466492 183.39892578 C-104.07514587 182.65618408 -103.66562683 181.91344238 -103.24369812 181.14819336 C-102.04673098 178.79513875 -101.06663826 176.40562169 -100.12138367 173.94189453 C-105.44139395 173.74377054 -110.75924913 173.59880835 -116.08207703 173.50244141 C-117.8913768 173.46226714 -119.70041774 173.40771328 -121.50883484 173.33837891 C-124.11340578 173.24103852 -126.71454159 173.19591521 -129.32060242 173.16064453 C-130.1259996 173.11935425 -130.93139679 173.07806396 -131.76119995 173.03552246 C-138.60872896 173.03008118 -140.32891815 176.04818351 -143.12138367 181.94189453 Z M-35.12138367 173.94189453 C-42.83135913 187.64713537 -42.83135913 187.64713537 -50.37138367 201.44189453 C-51.47944715 203.49268088 -52.58752037 205.54346196 -53.69560242 207.59423828 C-54.25553894 208.63177246 -54.81547546 209.66930664 -55.39237976 210.73828125 C-58.31962747 216.16208023 -61.25120347 221.58353153 -64.18388367 227.00439453 C-64.98777527 228.49326172 -64.98777527 228.49326172 -65.8079071 230.01220703 C-67.98668231 234.04010169 -70.1719801 238.05228569 -72.49247742 242.00048828 C-74.28286993 244.6731123 -74.28286993 244.6731123 -74.12138367 246.94189453 C-61.58138367 246.94189453 -49.04138367 246.94189453 -36.12138367 246.94189453 C-31.10945434 238.17101821 -26.17740898 229.4143232 -21.43388367 220.50439453 C-16.21993469 210.757566 -10.87867263 201.0942904 -5.38432312 191.50268555 C0.15003085 183.13373149 0.15003085 183.13373149 2.87861633 173.94189453 C-9.66138367 173.94189453 -22.20138367 173.94189453 -35.12138367 173.94189453 Z M-319.03276062 175.96411133 C-319.83732193 176.18822189 -320.64188324 176.41233246 -321.4708252 176.64323425 C-325.15399191 177.68708816 -328.83572333 178.73563378 -332.51469421 179.79418945 C-334.45350054 180.34889853 -336.39426553 180.89680891 -338.33695984 181.43774414 C-341.14096781 182.21887599 -343.93808098 183.02135857 -346.73466492 183.82861328 C-348.03178154 184.18363167 -348.03178154 184.18363167 -349.35510254 184.54582214 C-358.21495041 187.15660517 -362.682435 193.10119003 -367.13993835 200.93701172 C-370.91430891 208.72790663 -370.93649726 216.72025989 -370.87138367 225.19189453 C-370.86869476 225.88232849 -370.86600586 226.57276245 -370.86323547 227.28411865 C-371.06740234 236.71685082 -371.06740234 236.71685082 -367.12138367 244.94189453 C-363.4962868 246.97682286 -360.41649358 247.16587308 -356.30888367 247.06689453 C-354.8451532 247.03982422 -354.8451532 247.03982422 -353.35185242 247.01220703 C-352.61579773 246.98900391 -351.87974304 246.96580078 -351.12138367 246.94189453 C-350.64418884 246.03238037 -350.16699402 245.12286621 -349.67533875 244.18579102 C-340.50892676 226.72896384 -331.22567836 209.37691866 -321.43876648 192.25830078 C-319.5288019 188.8999346 -317.65468029 185.52340311 -315.80888367 182.12939453 C-315.27650085 181.15357422 -314.74411804 180.17775391 -314.19560242 179.17236328 C-312.97674683 177.05418736 -312.97674683 177.05418736 -313.12138367 174.94189453 C-315.30201916 174.94189453 -316.93262584 175.37719071 -319.03276062 175.96411133 Z M-307.12138367 307.94189453 C-307.12138367 312.89189453 -307.12138367 317.84189453 -307.12138367 322.94189453 C-215.71138367 322.94189453 -124.30138367 322.94189453 -30.12138367 322.94189453 C-30.12138367 317.99189453 -30.12138367 313.04189453 -30.12138367 307.94189453 C-121.53138367 307.94189453 -212.94138367 307.94189453 -307.12138367 307.94189453 Z M-307.12138367 376.94189453 C-307.12138367 381.89189453 -307.12138367 386.84189453 -307.12138367 391.94189453 C-215.71138367 391.94189453 -124.30138367 391.94189453 -30.12138367 391.94189453 C-30.12138367 386.99189453 -30.12138367 382.04189453 -30.12138367 376.94189453 C-121.53138367 376.94189453 -212.94138367 376.94189453 -307.12138367 376.94189453 Z " fill="#F5F5F5" transform="translate(433.1213836669922,1.05810546875)"/>
</svg>
