<?xml version="1.0" encoding="UTF-8"?>
<svg version="1.1" xmlns="http://www.w3.org/2000/svg" width="512" height="512">
<path d="M0 0 C1.17819809 -0.01268417 2.35639618 -0.02536835 3.57029724 -0.03843689 C4.82979691 -0.03550125 6.08929657 -0.03256561 7.38696289 -0.02954102 C9.34696983 -0.03740379 9.34696983 -0.03740379 11.34657288 -0.04542542 C14.10614717 -0.05433458 16.86543172 -0.05195894 19.625 -0.04199219 C23.14670731 -0.03050692 26.66741121 -0.05071658 30.18898678 -0.07990932 C33.56753052 -0.10275717 36.9458439 -0.09580101 40.32446289 -0.09204102 C42.21067604 -0.10889198 42.21067604 -0.10889198 44.13499451 -0.12608337 C50.87411974 -0.07256884 55.62301345 0.02680816 60.92211914 4.40405273 C64.34795051 9.21268056 64.32490835 13.62675459 64.21508789 19.30249023 C64.21084305 20.13745026 64.20659821 20.97241028 64.20222473 21.83267212 C64.18552247 24.48180308 64.14788689 27.13015433 64.10961914 29.77905273 C64.09456134 31.58242711 64.08087485 33.38581349 64.06860352 35.18920898 C64.03564676 39.59445424 63.98392383 43.99912159 63.92211914 48.40405273 C65.59383179 48.37263184 65.59383179 48.37263184 67.29931641 48.34057617 C71.45706193 48.26785866 75.61475187 48.22213828 79.77294922 48.18432617 C81.56829296 48.16428272 83.36357201 48.13704023 85.15869141 48.10229492 C87.74796564 48.05345424 90.33637255 48.03101154 92.92602539 48.01342773 C93.72110001 47.99278259 94.51617462 47.97213745 95.33534241 47.9508667 C101.0053274 47.94861347 104.35114099 48.9660887 108.92211914 52.40405273 C113.10976522 57.80468318 112.30321972 64.28351032 112.21508789 70.80249023 C112.21206665 71.85799072 112.20904541 72.91349121 112.20593262 74.00097656 C112.190289 77.92710205 112.14840512 81.85308767 112.10961914 85.77905273 C112.04774414 94.56530273 111.98586914 103.35155273 111.92211914 112.40405273 C133.04211914 112.40405273 154.16211914 112.40405273 175.92211914 112.40405273 C175.76400085 94.57348624 175.76400085 94.57348624 175.56176758 76.7434082 C175.55008156 74.5026933 175.53988953 72.26196989 175.53149414 70.02124023 C175.51103027 68.86438721 175.49056641 67.70753418 175.46948242 66.515625 C175.46490685 55.95292767 175.46490685 55.95292767 179.92211914 51.40405273 C184.80386933 48.03938804 189.11285458 48.000645 194.82055664 48.11108398 C195.65551666 48.11532883 196.49047668 48.11957367 197.35073853 48.12394714 C199.99986949 48.14064941 202.64822074 48.17828499 205.29711914 48.21655273 C207.10049352 48.23161054 208.9038799 48.24529702 210.70727539 48.25756836 C215.11252064 48.29052511 219.517188 48.34224805 223.92211914 48.40405273 C223.90117187 47.25404785 223.88022461 46.10404297 223.85864258 44.91918945 C223.78602851 40.63660217 223.74024185 36.35406891 223.70239258 32.07104492 C223.68232575 30.22036577 223.65506569 28.36974965 223.62036133 26.51928711 C223.57162481 23.85311296 223.54910127 21.18777987 223.53149414 18.52124023 C223.510849 17.69913055 223.49020386 16.87702087 223.46893311 16.02999878 C223.46686864 10.69768385 224.22119365 7.525503 227.92211914 3.40405273 C232.08949633 0.93657182 235.17638321 0.02526711 240 0 C241.17819809 -0.01268417 242.35639618 -0.02536835 243.57029724 -0.03843689 C244.82979691 -0.03550125 246.08929657 -0.03256561 247.38696289 -0.02954102 C248.69363419 -0.03478287 250.00030548 -0.04002472 251.34657288 -0.04542542 C254.10614717 -0.05433458 256.86543172 -0.05195894 259.625 -0.04199219 C263.14670731 -0.03050692 266.66741121 -0.05071658 270.18898678 -0.07990932 C273.56753052 -0.10275717 276.9458439 -0.09580101 280.32446289 -0.09204102 C282.21067604 -0.10889198 282.21067604 -0.10889198 284.13499451 -0.12608337 C290.87411974 -0.07256884 295.62301345 0.02680816 300.92211914 4.40405273 C303.40512852 8.56213942 304.30091915 11.66106429 304.32617188 16.48193359 C304.34519814 18.24923073 304.34519814 18.24923073 304.36460876 20.05223083 C304.36020531 21.94148033 304.36020531 21.94148033 304.35571289 23.86889648 C304.36095474 25.17556778 304.36619659 26.48223907 304.37159729 27.82850647 C304.38050646 30.58808076 304.37813082 33.34736532 304.36816406 36.10693359 C304.3566788 39.6286409 304.37688846 43.1493448 304.4060812 46.67092037 C304.42892905 50.04946412 304.42197288 53.4277775 304.41821289 56.80639648 C304.42944687 58.06387192 304.44068085 59.32134735 304.45225525 60.6169281 C304.39874072 67.35605333 304.29936372 72.10494704 299.92211914 77.40405273 C295.11349132 80.8298841 290.69941729 80.80684194 285.02368164 80.69702148 C284.18872162 80.69277664 283.3537616 80.6885318 282.49349976 80.68415833 C279.84436879 80.66745606 277.19601754 80.62982048 274.54711914 80.59155273 C272.74374476 80.57649493 270.94035838 80.56280845 269.13696289 80.55053711 C264.73147784 80.52014048 260.32766427 80.46140554 255.92211914 80.40405273 C255.92211914 90.96405273 255.92211914 101.52405273 255.92211914 112.40405273 C259.91499023 112.33444336 259.91499023 112.33444336 263.98852539 112.26342773 C266.58331396 112.23218067 269.17808111 112.20792232 271.77294922 112.18432617 C273.56829296 112.16428272 275.36357201 112.13704023 277.15869141 112.10229492 C279.74796564 112.05345424 282.33637255 112.03101154 284.92602539 112.01342773 C285.72110001 111.99278259 286.51617462 111.97213745 287.33534241 111.9508667 C293.0053274 111.94861347 296.35114099 112.9660887 300.92211914 116.40405273 C304.34795051 121.21268056 304.32490835 125.62675459 304.21508789 131.30249023 C304.21084305 132.13745026 304.20659821 132.97241028 304.20222473 133.83267212 C304.18552247 136.48180308 304.14788689 139.13015433 304.10961914 141.77905273 C304.09456134 143.58242711 304.08087485 145.38581349 304.06860352 147.18920898 C304.03564676 151.59445424 303.98392383 155.99912159 303.92211914 160.40405273 C305.03659424 160.38310547 306.15106934 160.3621582 307.29931641 160.34057617 C311.45706193 160.26785866 315.61475187 160.22213828 319.77294922 160.18432617 C321.56829296 160.16428272 323.36357201 160.13704023 325.15869141 160.10229492 C327.74796564 160.05345424 330.33637255 160.03101154 332.92602539 160.01342773 C333.72110001 159.99278259 334.51617462 159.97213745 335.33534241 159.9508667 C341.0053274 159.94861347 344.35114099 160.9660887 348.92211914 164.40405273 C352.34795051 169.21268056 352.32490835 173.62675459 352.21508789 179.30249023 C352.21084305 180.13745026 352.20659821 180.97241028 352.20222473 181.83267212 C352.18552247 184.48180308 352.14788689 187.13015433 352.10961914 189.77905273 C352.09456134 191.58242711 352.08087485 193.38581349 352.06860352 195.18920898 C352.03564676 199.59445424 351.98392383 203.99912159 351.92211914 208.40405273 C353.03659424 208.38310547 354.15106934 208.3621582 355.29931641 208.34057617 C359.45706193 208.26785866 363.61475187 208.22213828 367.77294922 208.18432617 C369.56829296 208.16428272 371.36357201 208.13704023 373.15869141 208.10229492 C375.74796564 208.05345424 378.33637255 208.03101154 380.92602539 208.01342773 C381.72110001 207.99278259 382.51617462 207.97213745 383.33534241 207.9508667 C389.0053274 207.94861347 392.35114099 208.9660887 396.92211914 212.40405273 C399.56398139 216.72724054 400.29903192 219.96802888 400.30979919 225.00083923 C400.32465614 226.96694908 400.32465614 226.96694908 400.33981323 228.97277832 C400.33557567 230.41333102 400.33101786 231.85388281 400.32617188 233.29443359 C400.33187798 234.82089233 400.33884317 236.34734679 400.3469696 237.87379456 C400.36488968 242.01020269 400.36373483 246.14639855 400.35802722 250.28283381 C400.35493369 253.73958215 400.36102964 257.19628982 400.36706597 260.65303236 C400.3811058 268.80957562 400.37955442 276.96601413 400.36816406 285.12255859 C400.3566831 293.52961589 400.37075927 301.93635417 400.39756054 310.34336942 C400.41973094 317.56904053 400.42635191 324.79461158 400.42048413 332.02031428 C400.41711657 336.33254389 400.41951615 340.64456902 400.43673515 344.95676994 C400.45222368 349.01248813 400.44822792 353.0677344 400.42943001 357.12343407 C400.42574937 358.60888836 400.42883732 360.09437776 400.4393158 361.57979965 C400.53321896 375.99588078 400.53321896 375.99588078 395.92211914 381.40405273 C391.86948228 384.10415164 388.66405729 384.78285825 383.84423828 384.80810547 C382.66604019 384.82078964 381.4878421 384.83347382 380.27394104 384.84654236 C379.01444138 384.84360672 377.75494171 384.84067108 376.45727539 384.83764648 C375.1506041 384.84288834 373.8439328 384.84813019 372.49766541 384.85353088 C369.73809111 384.86244005 366.97880656 384.86006441 364.21923828 384.85009766 C360.69753097 384.83861239 357.17682707 384.85882205 353.6552515 384.88801479 C350.27670776 384.91086264 346.89839438 384.90390648 343.51977539 384.90014648 C342.26229996 384.91138046 341.00482452 384.92261444 339.70924377 384.93418884 C332.97011855 384.88067431 328.22122483 384.78129731 322.92211914 380.40405273 C319.77808706 375.44799885 319.50338388 371.4993909 319.58154297 365.82836914 C319.58110489 364.98868591 319.58066681 364.14900269 319.58021545 363.28387451 C319.58229596 360.52421351 319.6055919 357.76516936 319.62915039 355.00561523 C319.63474897 353.08605277 319.63901783 351.16648601 319.64201355 349.24691772 C319.65344164 344.20640123 319.68289133 339.16614603 319.71612549 334.12573242 C319.74687027 328.97765639 319.7605283 323.82953795 319.77563477 318.68139648 C319.80776301 308.58881557 319.86051435 298.49649681 319.92211914 288.40405273 C314.64211914 288.40405273 309.36211914 288.40405273 303.92211914 288.40405273 C303.94306641 290.97259033 303.96401367 293.54112793 303.9855957 296.1875 C304.05194961 304.68506269 304.09608807 313.18263699 304.12936783 321.68039036 C304.15022004 326.83133744 304.17849461 331.9820185 304.22387695 337.1328125 C304.26741888 342.10598799 304.29127405 347.07890801 304.30162811 352.05225945 C304.30900449 353.94724485 304.32340891 355.84221667 304.34503937 357.73709297 C304.37418445 360.39664777 304.37807053 363.0551543 304.3762207 365.71484375 C304.39060181 366.49384033 304.40498291 367.27283691 304.4197998 368.07543945 C304.37824738 373.61640935 303.0966734 376.8396718 299.92211914 381.40405273 C295.11349132 384.8298841 290.69941729 384.80684194 285.02368164 384.69702148 C284.18872162 384.69277664 283.3537616 384.6885318 282.49349976 384.68415833 C279.84436879 384.66745606 277.19601754 384.62982048 274.54711914 384.59155273 C272.74374476 384.57649493 270.94035838 384.56280845 269.13696289 384.55053711 C264.73171764 384.51758036 260.32705028 384.46585742 255.92211914 384.40405273 C255.94306641 385.51852783 255.96401367 386.63300293 255.9855957 387.78125 C256.05831321 391.93899552 256.1040336 396.09668547 256.1418457 400.25488281 C256.16188916 402.05022655 256.18913165 403.8455056 256.22387695 405.640625 C256.27271763 408.22989923 256.29516034 410.81830614 256.31274414 413.40795898 C256.33338928 414.2030336 256.35403442 414.99810822 256.37530518 415.817276 C256.3775584 421.48726099 255.36008318 424.83307459 251.92211914 429.40405273 C247.31570054 432.27969805 243.75922253 432.78599682 238.37548828 432.80810547 C237.27913307 432.81840034 237.27913307 432.81840034 236.16062927 432.8289032 C233.75931024 432.84711243 231.35864824 432.84334229 228.95727539 432.83764648 C227.27867929 432.84221117 225.60008506 432.8475176 223.92149353 432.85353088 C220.40868523 432.86245047 216.89610442 432.86005213 213.38330078 432.85009766 C208.89312863 432.8386102 204.40374319 432.85882146 199.91367435 432.88801479 C196.44855301 432.90640657 192.98361916 432.90607843 189.51846123 432.90037727 C187.86353896 432.90022442 186.2086037 432.90623912 184.5537281 432.91866875 C182.23470572 432.93363381 179.91712345 432.92286307 177.59814453 432.90576172 C176.28165421 432.90559555 174.96516388 432.90542938 173.60877991 432.90525818 C168.92178691 432.26805651 166.74751183 431.1989588 162.92211914 428.40405273 C160.19342529 424.31809928 159.54302898 421.07999661 159.51806641 416.21850586 C159.49904015 414.41633606 159.49904015 414.41633606 159.47962952 412.57775879 C159.48403297 410.65099304 159.48403297 410.65099304 159.48852539 408.68530273 C159.48395875 407.34061419 159.47865174 405.99592798 159.47264099 404.65124512 C159.46373197 401.840398 159.46610805 399.02983535 159.47607422 396.21899414 C159.48757077 392.62769405 159.46733235 389.03737626 159.43815708 385.44620514 C159.41975998 382.67166982 159.42009423 379.89736852 159.4257946 377.12278748 C159.42602126 375.15860822 159.40916055 373.19445083 159.39198303 371.23034668 C159.48108555 359.81872044 159.48108555 359.81872044 163.92211914 355.40405273 C169.42449455 351.27645705 175.74753775 352.02260004 182.32055664 352.11108398 C184.10570175 352.11745125 184.10570175 352.11745125 185.9269104 352.12394714 C189.71721289 352.14070105 193.50697812 352.17834857 197.29711914 352.21655273 C199.8713302 352.23160376 202.44554961 352.24529143 205.01977539 352.25756836 C211.32076275 352.29059403 217.62134993 352.34235493 223.92211914 352.40405273 C223.92211914 347.12405273 223.92211914 341.84405273 223.92211914 336.40405273 C171.12211914 336.40405273 118.32211914 336.40405273 63.92211914 336.40405273 C63.92211914 341.68405273 63.92211914 346.96405273 63.92211914 352.40405273 C65.52128174 352.38310547 67.12044434 352.3621582 68.76806641 352.34057617 C74.71491502 352.26804293 80.6617247 352.22220377 86.60888672 352.18432617 C89.18024273 352.16424125 91.75155323 352.13696794 94.32275391 352.10229492 C98.0239588 352.05364193 101.72455847 352.0310519 105.42602539 352.01342773 C106.57108047 351.99278259 107.71613556 351.97213745 108.89588928 351.9508667 C115.43291536 351.949039 119.75409068 352.22448298 124.92211914 356.40405273 C127.4096492 360.55950706 128.3009228 363.66176087 128.32617188 368.48193359 C128.34519814 370.24923073 128.34519814 370.24923073 128.36460876 372.05223083 C128.36167313 373.3117305 128.35873749 374.57123016 128.35571289 375.86889648 C128.36095474 377.17556778 128.36619659 378.48223907 128.37159729 379.82850647 C128.38050646 382.58808076 128.37813082 385.34736532 128.36816406 388.10693359 C128.3566788 391.6286409 128.37688846 395.1493448 128.4060812 398.67092037 C128.42892905 402.04946412 128.42197288 405.4277775 128.41821289 408.80639648 C128.42944687 410.06387192 128.44068085 411.32134735 128.45225525 412.6169281 C128.39874072 419.35605333 128.29936372 424.10494704 123.92211914 429.40405273 C119.30005095 432.2588518 115.76596703 432.78596912 110.37548828 432.80810547 C109.27913307 432.81840034 109.27913307 432.81840034 108.16062927 432.8289032 C105.75931024 432.84711243 103.35864824 432.84334229 100.95727539 432.83764648 C99.27867929 432.84221117 97.60008506 432.8475176 95.92149353 432.85353088 C92.40868523 432.86245047 88.89610442 432.86005213 85.38330078 432.85009766 C80.89312863 432.8386102 76.40374319 432.85882146 71.91367435 432.88801479 C68.44855301 432.90640657 64.98361916 432.90607843 61.51846123 432.90037727 C59.86353896 432.90022442 58.2086037 432.90623912 56.5537281 432.91866875 C54.23470572 432.93363381 51.91712345 432.92286307 49.59814453 432.90576172 C48.28165421 432.90559555 46.96516388 432.90542938 45.60877991 432.90525818 C41.03457839 432.28339063 38.72310901 430.99075234 34.92211914 428.40405273 C31.49628777 423.59542491 31.51932993 419.18135088 31.62915039 413.50561523 C31.63339523 412.67065521 31.63764008 411.83569519 31.64201355 410.97543335 C31.65871581 408.32630238 31.69635139 405.67795114 31.73461914 403.02905273 C31.74967694 401.22567836 31.76336343 399.42229197 31.77563477 397.61889648 C31.80859152 393.21365123 31.86031445 388.80898388 31.92211914 384.40405273 C30.80764404 384.425 29.69316895 384.44594727 28.54492188 384.4675293 C24.38717635 384.54024681 20.22948641 384.58596719 16.07128906 384.6237793 C14.27594532 384.64382275 12.48066627 384.67106524 10.68554688 384.70581055 C8.09627264 384.75465123 5.50786574 384.77709393 2.91821289 384.79467773 C2.12313828 384.81532288 1.32806366 384.83596802 0.50889587 384.85723877 C-5.16108912 384.859492 -8.50690271 383.84201677 -13.07788086 380.40405273 C-16.24177952 375.46945517 -16.49646759 371.48861437 -16.41845703 365.82836914 C-16.41911415 364.5688443 -16.41911415 364.5688443 -16.41978455 363.28387451 C-16.41770404 360.52421351 -16.3944081 357.76516936 -16.37084961 355.00561523 C-16.36525103 353.08605277 -16.36098217 351.16648601 -16.35798645 349.24691772 C-16.34655836 344.20640123 -16.31710867 339.16614603 -16.28387451 334.12573242 C-16.25312973 328.97765639 -16.2394717 323.82953795 -16.22436523 318.68139648 C-16.19223699 308.58881557 -16.13948565 298.49649681 -16.07788086 288.40405273 C-21.35788086 288.40405273 -26.63788086 288.40405273 -32.07788086 288.40405273 C-32.04645996 292.25685913 -32.04645996 292.25685913 -32.0144043 296.1875 C-31.94805039 304.68506269 -31.90391193 313.18263699 -31.87063217 321.68039036 C-31.84977996 326.83133744 -31.82150539 331.9820185 -31.77612305 337.1328125 C-31.73258112 342.10598799 -31.70872595 347.07890801 -31.69837189 352.05225945 C-31.69099551 353.94724485 -31.67659109 355.84221667 -31.65496063 357.73709297 C-31.62581555 360.39664777 -31.62192947 363.0551543 -31.6237793 365.71484375 C-31.60939819 366.49384033 -31.59501709 367.27283691 -31.5802002 368.07543945 C-31.62180112 373.62287655 -32.7329172 376.92186494 -36.07788086 381.40405273 C-40.13051772 384.10415164 -43.33594271 384.78285825 -48.15576172 384.80810547 C-49.33395981 384.82078964 -50.5121579 384.83347382 -51.72605896 384.84654236 C-52.98555862 384.84360672 -54.24505829 384.84067108 -55.54272461 384.83764648 C-56.8493959 384.84288834 -58.1560672 384.84813019 -59.50233459 384.85353088 C-62.26190889 384.86244005 -65.02119344 384.86006441 -67.78076172 384.85009766 C-71.30246903 384.83861239 -74.82317293 384.85882205 -78.3447485 384.88801479 C-81.72329224 384.91086264 -85.10160562 384.90390648 -88.48022461 384.90014648 C-89.73770004 384.91138046 -90.99517548 384.92261444 -92.29075623 384.93418884 C-99.02988145 384.88067431 -103.77877517 384.78129731 -109.07788086 380.40405273 C-111.71103908 376.05336155 -112.45482828 372.81750232 -112.46556091 367.76257324 C-112.47094645 367.12056237 -112.47633199 366.47855149 -112.48188072 365.81708574 C-112.49611369 363.67986039 -112.48906866 361.54325851 -112.48193359 359.40600586 C-112.48763958 357.86807256 -112.49460472 356.33014349 -112.50273132 354.79222107 C-112.52065124 350.62488979 -112.51949676 346.45776921 -112.51378894 342.290411 C-112.51069587 338.80871522 -112.51679075 335.32705984 -112.52282768 331.84536982 C-112.53686701 323.63133532 -112.53531613 315.41740484 -112.52392578 307.20336914 C-112.51244054 298.7338088 -112.52652831 290.26456497 -112.55332226 281.79504633 C-112.57548167 274.51758677 -112.58211623 267.24022655 -112.57624584 259.96273565 C-112.57287618 255.61868044 -112.57529207 251.27482818 -112.59249687 246.93080139 C-112.60796823 242.84636015 -112.60400867 238.76238789 -112.58519173 234.67796516 C-112.58150657 233.18080294 -112.58461226 231.68360594 -112.59507751 230.18647575 C-112.60829534 228.13895558 -112.5967362 226.09298634 -112.5790863 224.04553223 C-112.57887702 222.90108391 -112.57866774 221.75663559 -112.57845211 220.57750702 C-111.96047162 216.65971746 -110.52216512 214.49332139 -108.07788086 211.40405273 C-103.19613067 208.03938804 -98.88714542 208.000645 -93.17944336 208.11108398 C-92.34448334 208.11532883 -91.50952332 208.11957367 -90.64926147 208.12394714 C-88.00013051 208.14064941 -85.35177926 208.17828499 -82.70288086 208.21655273 C-80.89950648 208.23161054 -79.0961201 208.24529702 -77.29272461 208.25756836 C-72.88747936 208.29052511 -68.482812 208.34224805 -64.07788086 208.40405273 C-64.09882812 207.25404785 -64.11977539 206.10404297 -64.14135742 204.91918945 C-64.21397149 200.63660217 -64.25975815 196.35406891 -64.29760742 192.07104492 C-64.31767425 190.22036577 -64.34493431 188.36974965 -64.37963867 186.51928711 C-64.42837519 183.85311296 -64.45089873 181.18777987 -64.46850586 178.52124023 C-64.489151 177.69913055 -64.50979614 176.87702087 -64.53106689 176.02999878 C-64.53313136 170.69768385 -63.77880635 167.525503 -60.07788086 163.40405273 C-55.19613067 160.03938804 -50.88714542 160.000645 -45.17944336 160.11108398 C-44.34448334 160.11532883 -43.50952332 160.11957367 -42.64926147 160.12394714 C-40.00013051 160.14064941 -37.35177926 160.17828499 -34.70288086 160.21655273 C-32.89950648 160.23161054 -31.0961201 160.24529702 -29.29272461 160.25756836 C-24.88747936 160.29052511 -20.482812 160.34224805 -16.07788086 160.40405273 C-16.10930176 158.67904541 -16.10930176 158.67904541 -16.14135742 156.91918945 C-16.21397149 152.63660217 -16.25975815 148.35406891 -16.29760742 144.07104492 C-16.31767425 142.22036577 -16.34493431 140.36974965 -16.37963867 138.51928711 C-16.42837519 135.85311296 -16.45089873 133.18777987 -16.46850586 130.52124023 C-16.489151 129.69913055 -16.50979614 128.87702087 -16.53106689 128.02999878 C-16.53313136 122.69768385 -15.77880635 119.525503 -12.07788086 115.40405273 C-7.19613067 112.03938804 -2.88714542 112.000645 2.82055664 112.11108398 C3.65551666 112.11532883 4.49047668 112.11957367 5.35073853 112.12394714 C7.99986949 112.14064941 10.64822074 112.17828499 13.29711914 112.21655273 C15.10049352 112.23161054 16.9038799 112.24529702 18.70727539 112.25756836 C23.11276044 112.28796499 27.51657401 112.34669993 31.92211914 112.40405273 C31.92211914 101.84405273 31.92211914 91.28405273 31.92211914 80.40405273 C27.92924805 80.47366211 27.92924805 80.47366211 23.85571289 80.54467773 C21.26092432 80.5759248 18.66615717 80.60018315 16.07128906 80.6237793 C14.27594532 80.64382275 12.48066627 80.67106524 10.68554688 80.70581055 C8.09627264 80.75465123 5.50786574 80.77709393 2.91821289 80.79467773 C2.12313828 80.81532288 1.32806366 80.83596802 0.50889587 80.85723877 C-5.16108912 80.859492 -8.50690271 79.84201677 -13.07788086 76.40405273 C-15.60868176 72.22112096 -16.45696937 69.08031749 -16.48193359 64.21850586 C-16.49461777 63.01705933 -16.50730194 61.81561279 -16.52037048 60.57775879 C-16.51743484 59.29324829 -16.51449921 58.00873779 -16.51147461 56.68530273 C-16.51604125 55.34061419 -16.52134826 53.99592798 -16.52735901 52.65124512 C-16.53626803 49.840398 -16.53389195 47.02983535 -16.52392578 44.21899414 C-16.51242923 40.62769405 -16.53266765 37.03737626 -16.56184292 33.44620514 C-16.58024002 30.67166982 -16.57990577 27.89736852 -16.5742054 25.12278748 C-16.57397874 23.15860822 -16.59083945 21.19445083 -16.60801697 19.23034668 C-16.51891445 7.81872044 -16.51891445 7.81872044 -12.07788086 3.40405273 C-7.89878376 0.95641571 -4.82711627 0.02528544 0 0 Z M34.92211914 198.40405273 C30.93998166 204.37725896 31.76185416 212.32840518 31.75415039 219.20874023 C31.75082199 220.24668732 31.74749359 221.2846344 31.74406433 222.35403442 C31.73901388 224.54436807 31.73665542 226.73470937 31.73681641 228.92504883 C31.73463121 232.26062808 31.71645879 235.59587572 31.69750977 238.93139648 C31.69457513 241.06550994 31.6925908 243.19962496 31.69165039 245.33374023 C31.68446487 246.32356903 31.67727936 247.31339783 31.6698761 248.33322144 C31.69571477 256.23630122 32.02932075 263.51125435 37.92211914 269.40405273 C43.89532537 273.38619022 51.84647158 272.56431772 58.72680664 272.57202148 C59.76475372 272.57534988 60.80270081 272.57867828 61.87210083 272.58210754 C64.06243447 272.587158 66.25277577 272.58951645 68.44311523 272.58935547 C71.77869449 272.59154066 75.11394212 272.60971308 78.44946289 272.62866211 C80.58357635 272.63159675 82.71769137 272.63358107 84.85180664 272.63452148 C86.33654984 272.64529976 86.33654984 272.64529976 87.85128784 272.65629578 C98.038045 272.62858132 98.038045 272.62858132 106.79711914 267.96655273 C112.56864884 261.00676692 112.080396 254.25532301 112.09008789 245.59936523 C112.09341629 244.56141815 112.09674469 243.52347107 112.10017395 242.45407104 C112.1052244 240.2637374 112.10758286 238.0733961 112.10742188 235.88305664 C112.10960707 232.54747738 112.12777949 229.21222975 112.14672852 225.87670898 C112.14966315 223.74259553 112.15164748 221.6084805 112.15258789 219.47436523 C112.16336617 217.98962204 112.16336617 217.98962204 112.17436218 216.47488403 C112.14852352 208.57180425 111.81491753 201.29685112 105.92211914 195.40405273 C99.94891292 191.42191525 91.9977667 192.24378775 85.11743164 192.23608398 C84.07948456 192.23275558 83.04153748 192.22942719 81.97213745 192.22599792 C79.78180381 192.22094747 77.59146251 192.21858902 75.40112305 192.21875 C72.06554379 192.2165648 68.73029616 192.19839239 65.39477539 192.17944336 C63.26066193 192.17650872 61.12654691 192.1745244 58.99243164 192.17358398 C58.00260284 192.16639847 57.01277405 192.15921295 55.99295044 192.15180969 C48.08987065 192.17764836 40.81491753 192.51125435 34.92211914 198.40405273 Z M178.92211914 198.40405273 C174.93998166 204.37725896 175.76185416 212.32840518 175.75415039 219.20874023 C175.75082199 220.24668732 175.74749359 221.2846344 175.74406433 222.35403442 C175.73901388 224.54436807 175.73665542 226.73470937 175.73681641 228.92504883 C175.73463121 232.26062808 175.71645879 235.59587572 175.69750977 238.93139648 C175.69457513 241.06550994 175.6925908 243.19962496 175.69165039 245.33374023 C175.68446487 246.32356903 175.67727936 247.31339783 175.6698761 248.33322144 C175.69571477 256.23630122 176.02932075 263.51125435 181.92211914 269.40405273 C187.89532537 273.38619022 195.84647158 272.56431772 202.72680664 272.57202148 C203.76475372 272.57534988 204.80270081 272.57867828 205.87210083 272.58210754 C208.06243447 272.587158 210.25277577 272.58951645 212.44311523 272.58935547 C215.77869449 272.59154066 219.11394212 272.60971308 222.44946289 272.62866211 C224.58357635 272.63159675 226.71769137 272.63358107 228.85180664 272.63452148 C230.33654984 272.64529976 230.33654984 272.64529976 231.85128784 272.65629578 C242.038045 272.62858132 242.038045 272.62858132 250.79711914 267.96655273 C256.56864884 261.00676692 256.080396 254.25532301 256.09008789 245.59936523 C256.09341629 244.56141815 256.09674469 243.52347107 256.10017395 242.45407104 C256.1052244 240.2637374 256.10758286 238.0733961 256.10742188 235.88305664 C256.10960707 232.54747738 256.12777949 229.21222975 256.14672852 225.87670898 C256.14966315 223.74259553 256.15164748 221.6084805 256.15258789 219.47436523 C256.16336617 217.98962204 256.16336617 217.98962204 256.17436218 216.47488403 C256.14852352 208.57180425 255.81491753 201.29685112 249.92211914 195.40405273 C243.94891292 191.42191525 235.9977667 192.24378775 229.11743164 192.23608398 C228.07948456 192.23275558 227.04153748 192.22942719 225.97213745 192.22599792 C223.78180381 192.22094747 221.59146251 192.21858902 219.40112305 192.21875 C216.06554379 192.2165648 212.73029616 192.19839239 209.39477539 192.17944336 C207.26066193 192.17650872 205.12654691 192.1745244 202.99243164 192.17358398 C202.00260284 192.16639847 201.01277405 192.15921295 199.99295044 192.15180969 C192.08987065 192.17764836 184.81491753 192.51125435 178.92211914 198.40405273 Z " fill="#F5F5F5" transform="translate(112.077880859375,47.595947265625)"/>
</svg>
